<?xml version="1.0" encoding="UTF-8"?>
<svg width="347px" height="130px" viewBox="0 0 347 130" version="1.1" xmlns="http://www.w3.org/2000/svg" xmlns:xlink="http://www.w3.org/1999/xlink">
    <title>BCF0B122-7CF7-47E6-A83A-65ED9EA7CBC3</title>
    <g id="logos" stroke="none" stroke-width="1" fill="none" fill-rule="evenodd">
        <g id="Group">
            <rect id="Rectangle" x="0" y="0" width="347" height="130"></rect>
            <path d="M259.68,84.752 C260.497,84.752 261.255,84.864 261.926,85.087 L266.594,85.087 L266.594,86.853 L264.494,86.853 C265.106,87.637 265.427,88.618 265.427,89.682 C265.427,92.512 263.239,94.613 259.709,94.613 C259.155,94.613 258.659,94.557 258.133,94.445 C257.55,94.725 257.288,95.089 257.288,95.509 C257.288,96.238 258.163,96.49 259.446,96.545 C262.481,96.714 266.624,96.518 266.624,100.665 C266.624,103.465 263.385,105.203 259.563,105.203 C256.266,105.203 253.816,104.11 253.816,101.477 C253.816,99.963 254.807,98.788 256.208,98.031 C255.45,97.667 254.954,97.05 254.954,96.042 C254.954,95.061 255.625,94.305 256.413,93.829 C254.837,92.988 253.932,91.475 253.932,89.682 C253.932,86.825 256.15,84.752 259.68,84.752 Z M257.988,98.507 C256.821,99.208 256.237,100.076 256.237,101.168 C256.237,102.401 257.258,103.41 259.68,103.41 C262.364,103.41 264.114,102.374 264.114,100.804 C264.114,98.815 262.276,98.815 260.555,98.703 C259.68,98.647 258.775,98.619 257.988,98.507 Z M310.103,84.752 C312.437,84.752 313.867,85.648 314.334,85.984 L313.225,87.693 C312.729,87.329 311.649,86.712 310.132,86.712 C308.644,86.712 307.857,87.357 307.857,88.421 C307.857,89.627 309.024,90.102 310.599,90.719 C312.845,91.643 314.859,92.596 314.859,94.865 C314.859,97.386 312.875,98.927 309.724,98.927 C307.624,98.927 306.047,98.227 305.172,97.638 L306.194,95.874 C306.719,96.238 308.003,96.966 309.666,96.966 C311.358,96.966 312.408,96.322 312.408,95.173 C312.408,93.997 311.27,93.52 309.228,92.652 C307.069,91.755 305.494,90.775 305.494,88.534 C305.494,86.377 307.244,84.752 310.103,84.752 Z M298.139,84.752 C300.473,84.752 301.903,85.648 302.37,85.984 L301.261,87.693 C300.765,87.329 299.686,86.712 298.169,86.712 C296.68,86.712 295.893,87.357 295.893,88.421 C295.893,89.627 297.06,90.102 298.635,90.719 C300.881,91.643 302.895,92.596 302.895,94.865 C302.895,97.386 300.911,98.927 297.76,98.927 C295.66,98.927 294.085,98.227 293.209,97.638 L294.23,95.874 C294.755,96.238 296.039,96.966 297.702,96.966 C299.394,96.966 300.444,96.322 300.444,95.173 C300.444,93.997 299.306,93.52 297.264,92.652 C295.105,91.755 293.53,90.775 293.53,88.534 C293.53,86.377 295.28,84.752 298.139,84.752 Z M156.904,84.752 C159.238,84.752 160.668,85.648 161.134,85.984 L160.026,87.693 C159.53,87.329 158.45,86.712 156.933,86.712 C155.445,86.712 154.658,87.357 154.658,88.421 C154.658,89.627 155.825,90.102 157.4,90.719 C159.646,91.643 161.66,92.596 161.66,94.865 C161.66,97.386 159.675,98.927 156.525,98.927 C154.424,98.927 152.848,98.227 151.973,97.638 L152.995,95.874 C153.52,96.238 154.803,96.966 156.466,96.966 C158.159,96.966 159.209,96.322 159.209,95.173 C159.209,93.997 158.071,93.52 156.029,92.652 C153.87,91.755 152.295,90.775 152.295,88.534 C152.295,86.377 154.045,84.752 156.904,84.752 Z M285.183,84.752 C288.742,84.752 290.813,87.133 290.813,90.915 C290.813,91.251 290.785,91.587 290.755,91.952 L281.39,91.952 C281.477,94.641 282.645,96.938 285.65,96.938 C287.575,96.938 288.859,96.126 289.471,95.79 L290.434,97.527 C289.675,98.003 288.129,98.899 285.533,98.899 C281.04,98.899 278.735,95.79 278.735,91.727 C278.735,87.721 281.419,84.752 285.183,84.752 Z M244.68,84.752 C249.436,84.752 251.449,88.562 251.449,91.784 C251.449,94.977 249.524,98.899 244.739,98.899 C239.983,98.899 238.145,95.061 238.145,91.839 C238.145,88.646 239.896,84.752 244.68,84.752 Z M112.111,84.752 C115.67,84.752 117.741,87.133 117.741,90.915 C117.741,91.251 117.712,91.587 117.683,91.952 L108.318,91.952 C108.405,94.641 109.573,96.938 112.578,96.938 C114.503,96.938 115.787,96.126 116.399,95.79 L117.362,97.527 C116.603,98.003 115.057,98.899 112.461,98.899 C107.967,98.899 105.663,95.79 105.663,91.727 C105.663,87.721 108.347,84.752 112.111,84.752 Z M136.477,84.752 C139.715,84.752 141.437,86.152 141.437,89.318 L141.437,95.313 C141.437,96.77 141.612,97.863 141.787,98.563 L139.337,98.563 C139.219,98.199 139.131,97.386 139.103,96.966 C138.227,98.059 136.711,98.899 134.96,98.899 C132.596,98.899 130.905,97.47 130.905,95.229 C130.905,91.671 134.93,90.579 138.403,90.579 L138.986,90.579 L138.986,89.402 C138.986,87.553 138.17,86.769 136.273,86.769 C134.93,86.769 133.822,87.217 132.626,88.198 L131.401,86.6 C132.713,85.424 134.377,84.752 136.477,84.752 Z M186.171,84.752 C190.927,84.752 192.94,88.562 192.94,91.784 C192.94,94.977 191.014,98.899 186.23,98.899 C181.474,98.899 179.636,95.061 179.636,91.839 C179.636,88.646 181.387,84.752 186.171,84.752 Z M124.484,81.221 L124.484,85.087 L127.985,85.087 L127.985,86.937 L124.484,86.937 L124.484,94.893 C124.484,96.238 124.892,96.882 126.088,96.882 C126.963,96.882 127.722,96.49 127.985,96.322 L128.772,98.086 C128.335,98.367 127.285,98.899 125.709,98.899 C123.17,98.899 122.033,97.527 122.033,95.202 L122.033,86.937 L119.728,86.937 L119.728,85.087 L122.033,85.087 L122.033,81.221 L124.484,81.221 Z M86.168,79.905 L90.808,92.372 C91.362,93.884 91.683,94.809 92.005,95.761 L92.062,95.761 C92.325,94.865 92.675,93.856 93.229,92.372 L97.897,79.905 L100.407,79.905 L103.032,98.563 L100.378,98.563 L98.772,86.853 C98.622,85.7001429 98.5366531,84.9800204 98.4788047,84.4621487 L98.452,84.219 L98.452,84.219 L98.393,84.219 C98.218,84.836 97.985,85.62 97.547,86.825 L93.2,98.563 L90.632,98.563 L86.198,86.825 C85.76,85.62 85.498,84.836 85.294,84.219 L85.235,84.219 C85.177,84.864 85.089,85.648 84.944,86.909 L83.456,98.563 L81.005,98.563 L83.689,79.905 L86.168,79.905 Z M202.513,84.752 C203.418,84.752 203.884,84.948 204.088,85.032 L203.476,87.245 C203.3,87.161 202.951,87.021 202.192,87.021 C200.179,87.021 199.042,89.178 198.808,89.627 L198.808,98.563 L196.357,98.563 L196.357,85.087 L198.808,85.087 L198.808,87.133 C199.391,86.209 200.587,84.752 202.513,84.752 Z M148.471,78.392 L148.471,98.563 L145.992,98.563 L145.992,78.392 L148.471,78.392 Z M177.272,78.056 C178.789,78.056 179.577,78.336 179.838,78.476 L179.197,80.437 C179.022,80.353 178.351,80.101 177.359,80.101 C175.55,80.101 174.558,81.25 174.558,83.378 L174.558,85.087 L178.088,85.087 L178.088,86.937 L174.558,86.937 L174.558,98.563 L172.079,98.563 L172.079,86.937 L169.774,86.937 L169.774,85.087 L172.079,85.087 L172.079,83.211 C172.079,80.073 173.975,78.056 177.272,78.056 Z M235.168,84.752 C236.072,84.752 236.539,84.948 236.743,85.032 L236.13,87.245 C235.955,87.161 235.605,87.021 234.846,87.021 C232.834,87.021 231.696,89.178 231.462,89.627 L231.462,98.563 L229.011,98.563 L229.011,85.087 L231.462,85.087 L231.462,87.133 C232.045,86.209 233.242,84.752 235.168,84.752 Z M218.65,79.905 C222.618,79.905 225.594,81.726 225.594,85.396 C225.594,89.122 222.88,91.195 218.3,91.195 L216.141,91.195 L216.141,98.563 L213.486,98.563 L213.486,79.905 L218.65,79.905 Z M275.933,84.752 C276.837,84.752 277.304,84.948 277.508,85.032 L276.896,87.245 C276.72,87.161 276.371,87.021 275.612,87.021 C273.599,87.021 272.461,89.178 272.228,89.627 L272.228,98.563 L269.777,98.563 L269.777,85.087 L272.228,85.087 L272.228,87.133 C272.811,86.209 274.007,84.752 275.933,84.752 Z M244.651,86.712 C241.85,86.712 240.771,88.954 240.771,91.784 C240.771,94.613 241.997,96.938 244.797,96.938 C247.569,96.938 248.823,94.669 248.823,91.839 C248.823,89.038 247.422,86.712 244.651,86.712 Z M138.986,92.232 L138.403,92.232 C135.544,92.232 133.472,92.988 133.472,95.145 C133.472,96.461 134.61,96.938 135.456,96.938 C136.973,96.938 138.14,96.21 138.986,95.145 L138.986,92.232 Z M186.142,86.712 C183.341,86.712 182.262,88.954 182.262,91.784 C182.262,94.613 183.488,96.938 186.289,96.938 C189.06,96.938 190.315,94.669 190.315,91.839 C190.315,89.038 188.915,86.712 186.142,86.712 Z M259.68,86.573 C257.637,86.573 256.441,87.861 256.441,89.682 C256.441,91.503 257.637,92.792 259.68,92.792 C261.722,92.792 262.919,91.503 262.919,89.682 C262.919,87.861 261.722,86.573 259.68,86.573 Z M112.052,86.684 C109.922,86.684 108.755,88.114 108.405,90.13 L115.261,90.13 C115.203,88.309 114.357,86.684 112.052,86.684 Z M285.125,86.684 C282.995,86.684 281.828,88.114 281.477,90.13 L288.334,90.13 C288.275,88.309 287.429,86.684 285.125,86.684 Z M218.417,81.978 L216.141,81.978 L216.141,89.122 L218.33,89.122 C221.568,89.122 222.91,87.861 222.91,85.452 C222.91,83.378 221.684,81.978 218.417,81.978 Z M238.041,32.406 L238.041,46.457 L238.137,46.457 C238.717,43.112 242.635,41.559 246.457,41.559 L246.457,41.559 L250.561,41.559 C262.314,41.559 263.765,45.83 263.765,51.265 L263.764411,55.2989261 C263.730283,60.6433625 262.178908,64.763 250.561,64.763 L250.561,64.763 L246.504,64.763 C240.894,64.763 238.572,62.554 237.557,59.92 L237.557,59.92 L237.461,59.92 L237.461,63.801 L230.1,63.801 L230.1,32.406 L238.041,32.406 Z M299.613108,42.1353353 C310.988415,42.154034 313.316214,42.9670952 313.417,47.623 L313.417,47.623 L304.834,47.623 C304.35,46.368 303.479,46.108 297.916,46.16 C291.263,46.222 290.044,46.176 290.049,48.423 L290.049798,48.478508 C290.073501,49.3890072 290.64784,50.4801 295.883,50.436 L295.883,50.436 L302.97,50.436 C314.095,50.436 314.918,53.215 314.918,57.02 C314.918,62.665 312.416,64.238 301.823,64.238 L301.823,64.238 L293.161,64.238 C284.599,64.238 281.294,63.411 281.294,58.144 L281.294,58.144 L290.037,58.144 C290.037,59.314 290.521,60.109 295.793,60.109 L295.793,60.109 L299.776,60.109 C305.138,60.149 306.18,59.563 306.208,57.84 C306.228,56.478 305.768,55.366 301.325,55.322 L301.325,55.322 L292.62,55.322 C283.961,55.281 281.398,54.093 281.398,48.239 C281.398,42.93 286.332,42.135 292.717,42.135 Z M131.479,42.469 L131.479,54.721 C131.479,56.811 134.135,58.812 138.198,58.812 L138.198,58.812 L140.993,58.812 C144.959,58.812 147.558,56.268 147.558,53.215 L147.558,53.215 L147.558,42.469 L155.895,42.469 L155.895,63.801 L147.558,63.801 L147.558,60.365 L147.461,60.365 C145.816,63.333 142.762,64.232 137.781,64.232 C132.024,64.232 122.858,63.92 122.858,54.721 L122.858,54.721 L122.858,42.469 L131.479,42.469 Z M200.203,42.469 L200.203,54.721 C200.203,56.811 202.859,58.812 206.922,58.812 L206.922,58.812 L209.716,58.812 C213.683,58.812 216.282,56.268 216.282,53.215 L216.282,53.215 L216.282,42.469 L224.619,42.469 L224.619,63.801 L216.282,63.801 L216.282,60.365 L216.185,60.365 C214.54,63.333 211.486,64.232 206.504,64.232 C200.749,64.232 191.582,63.92 191.582,54.721 L191.582,54.721 L191.582,42.469 L200.203,42.469 Z M103.653,32.377 L121.788,63.808 L112.736,63.813 L109.244,57.752 L88.539,57.752 L85.477,63.066 L80.948,55.223 L94.13,32.377 L103.653,32.377 Z M276.401,42.469 L276.401,63.801 L268.164,63.801 L268.164,42.469 L276.401,42.469 Z M179.172,42.135 C185.944,42.135 188.278,44.644 188.278,50.54 L188.278,50.54 L188.278,51.73 L181.152,51.73 C181.152,49.012 180.427,47.716 176.701,47.716 C173.51,47.716 169.571,49.452 169.571,52.003 L169.571,52.003 L169.571,63.801 L161.324,63.801 L161.324,42.469 L168.991,42.469 L168.991,46.526 L169.088,46.526 C170.152,43.138 174.965,42.135 179.172,42.135 Z M250.051,47.313 L244.006,47.313 C239.941,47.313 237.801,48.099 237.801,51.66 L237.801,51.66 L237.801,54.62 C237.801,58.18 239.941,58.966 244.006,58.966 L244.006,58.966 L250.051,58.966 C254.973,58.966 255.454,57.486 255.454,54.849 L255.453365,51.2681194 C255.432518,48.7332082 254.872551,47.313 250.051,47.313 L250.051,47.313 Z M98.892,39.785 L91.828,52.044 L105.956,52.044 L98.892,39.785 Z M276.401,32.406 L276.401,38.614 L268.164,38.614 L268.164,32.406 L276.401,32.406 Z" id="Combined-Shape" fill="#000000"></path>
            <path d="M36.098,55.892 L63.137,55.895 L67.696,63.817 L31.453,63.817 L36.098,55.892 Z M63.225,32.377 L81.359,63.809 L72.307,63.813 L58.684,40.164 L63.225,32.377 Z M56.421,20.527 L60.919,28.393 L47.362,51.925 L38.348,51.925 L56.421,20.527 Z" id="Combined-Shape" fill="#0076A7"></path>
        </g>
    </g>
</svg>