<?xml version="1.0" encoding="UTF-8"?><svg id="Ebene_2" xmlns="http://www.w3.org/2000/svg" viewBox="0 0 360 360"><defs><style>.cls-1{fill:#f7f7f7;}.cls-2{fill:#0a0a14;}</style></defs><g id="Logo"><g><circle class="cls-2" cx="180" cy="180" r="180"/><path class="cls-1" d="M180,5.1689C83.6027,5.1689,5.1689,83.6027,5.1689,180s78.4338,174.8311,174.8311,174.8311,174.8312-78.4338,174.8312-174.8311S276.4094,5.1689,180,5.1689Zm0,342.973c-92.7121,0-168.1419-75.4298-168.1419-168.1419S87.2878,11.8581,180,11.8581s168.142,75.4298,168.142,168.1419-75.4176,168.1419-168.142,168.1419Zm-68.3878-64.6662l-16.5283,21.7581-4.9986-3.7946,6.9811-9.1946-3.3324-2.5297-6.9811,9.1946-4.9988-3.8068,16.5163-21.746,4.9986,3.7946-6.6406,8.7568,3.3204,2.5297,6.6527-8.7567,5.0108,3.7946Zm10.1312,5.8013l-15.4704,22.8892,5.8014,2.773,2.7972-4.4636,3.8069,1.8243-1.7271,4.9622,5.8377,2.7973,8.1122-26.404-9.158-4.3784Zm-1.6177,18.8635l-2.931-1.3986,7.3458-11.7365,.1216,.0608-4.5365,13.0743Zm46.0581-4.7068l-4.6702,26.9392-5.7527-1.2284,4.2081-22.4149-.1338-.0365-8.0392,21.6122-7.2243-1.5203,1.3864-23.023-.1338-.0365-5.2175,22.2203-5.777-1.2284,6.6527-26.5135,9.9364,2.104-1.7635,19.946,.1338,.0243,6.458-18.9486,9.9365,2.104Zm26.8784,18.2676c-.0365-1.3865-.4135-2.5298-1.1068-3.3933-.7054-.8756-1.7635-1.4716-3.1987-1.7635v-.0609c1.2528-.4256,2.1771-1.0824,2.7731-1.9824,.5838-.9,.8514-2.0067,.8027-3.3446l-.0608-1.9581c-.0364-1.204-.3405-2.25-.9-3.1257-.5595-.8878-1.4351-1.5689-2.615-2.0432-1.1797-.4743-2.6634-.6811-4.4634-.6203l-8.7689,.292,.9,27.2919,9.146-.292c1.8122-.0608,3.2837-.3649,4.427-.9243,1.1432-.5473,1.9581-1.2893,2.469-2.2014,.4986-.9243,.7297-1.9824,.6932-3.1865l-.0972-2.6878Zm-11.104-13.7068l1.9579-.0608c.7907-.0365,1.3501,.0973,1.7149,.3649,.3528,.2797,.5352,.7419,.5596,1.3987l.0972,2.8095c.0243,.6567-.1338,1.1311-.4743,1.4351-.3406,.2919-.9,.4622-1.6784,.4864l-1.9703,.0609-.2067-6.4946Zm4.4391,17.7325c-.3406,.3041-.9,.4622-1.6784,.4864l-2.1648,.073-.2312-7.2851,2.1527-.073c.7784-.0243,1.35,.0973,1.7027,.3649,.3648,.2798,.5472,.7419,.5716,1.3987l.1216,3.6122c.0122,.6446-.1459,1.1311-.4743,1.423Zm35.0757-3.9892c-.2919,1.2162-.9608,2.2987-2.0189,3.223-1.0703,.9365-2.5419,1.6176-4.4392,2.0798-1.8851,.45-3.5149,.5108-4.877,.158-1.3622-.3405-2.4568-.9972-3.2838-1.9459-.8148-.9608-1.3864-2.1406-1.727-3.5392l-4.7311-19.6784,6.1054-1.4716,4.7919,19.9095c.1459,.6446,.45,1.1311,.8756,1.4351,.4379,.3041,.9973,.377,1.6662,.2189,.669-.1581,1.1311-.4743,1.3743-.9486,.2554-.4743,.3041-1.0338,.1459-1.6784l-4.7797-19.9095,6.1054-1.4716,4.7311,19.6905c.3283,1.3987,.3527,2.7,.0608,3.9284Zm30.8432-9.377c-.6446-.6811-1.2162-1.4595-1.7148-2.3595-.1217-.2068-.2068-.3649-.2676-.4865l-2.4567-4.7675c-.4014-.7662-.8514-1.3622-1.3501-1.7879-.4864-.4135-1.0581-.6689-1.7027-.7905-.6446-.1095-1.3987-.0851-2.2743,.0851l-.0243-.0487c1.1189-.9243,1.7878-1.9337,1.9946-3.0284,.2189-1.0946,.0243-2.2743-.5717-3.5271l-1.0824-2.2743c-.523-1.0946-1.2162-1.9216-2.0798-2.5054-.8635-.5838-1.9338-.8635-3.1987-.827-1.2648,.0243-2.7121,.4378-4.3419,1.204l-8.1,3.8676,11.7486,24.6527,5.6676-2.7-4.8284-10.1433,1.4595-.7054c.7054-.3283,1.277-.4378,1.7027-.3283,.4257,.1094,.7906,.4622,1.0946,1.0459l2.7,5.2662,.1946,.3892c.2919,.5351,.5716,1.0216,.8635,1.4473,.2797,.4256,.5716,.8027,.8635,1.1067l5.7284-2.7365-.0243-.0486Zm-13.2203-11.5541c-.1946,.4013-.6325,.7783-1.35,1.1067l-1.9581,.9365-3.0284-6.373,1.9582-.9365c.7054-.3284,1.277-.45,1.7148-.3406,.4378,.1095,.7906,.4622,1.0703,1.0581l1.4595,3.0405c.2797,.596,.3162,1.0946,.1338,1.5082Zm31.0257-4.6095l-.0486,.0365c.4256,1.1797,.5108,2.2621,.2554,3.2595-.2433,.9851-.9364,1.9095-2.0676,2.7608-1.1311,.8513-2.2134,1.2892-3.2473,1.3135-1.0338,.0243-2.0067-.2919-2.931-.9364-.9243-.6446-1.8365-1.5568-2.7487-2.7608l-7.9298-10.5081c-.8635-1.1554-1.4108-2.3473-1.6176-3.5879-.2189-1.2405-.0243-2.4932,.5717-3.7702,.6081-1.277,1.6784-2.4932,3.223-3.6608,1.5567-1.1797,3.0284-1.8729,4.427-2.104,1.3865-.2311,2.6392-.0608,3.7703,.4864,1.1311,.5473,2.1284,1.3987,2.9918,2.5541l1.8487,2.4324-5.023,3.7946-1.9703-2.6392c-.4014-.523-.8635-.8392-1.3865-.9487-.523-.1094-1.0581,.0365-1.6175,.4622-.5473,.4135-.8392,.8878-.8879,1.4108-.0364,.5351,.1459,1.0703,.5473,1.5933l8.2095,10.8851c.4014,.5351,.8635,.8514,1.3865,.9609,.523,.1094,1.0581-.0487,1.6054-.4622,.5594-.4135,.8513-.8879,.8878-1.423,.0365-.523-.1459-1.0581-.5473-1.5932l-2.4567-3.2595-1.5568,1.1798-2.5298-3.3568,6.5676-4.9622,9.1094,12.0892-4.2689,3.2108-2.5662-2.4568Zm-30.4176-253.6783c-.2067-1.569-.9-3.0163-2.0919-4.3297-1.2041-1.3135-2.9554-2.3838-5.2662-3.2108-2.2987-.8392-4.3297-1.1311-6.0933-.8879-1.7635,.2433-3.223,.9122-4.3783,1.9946-1.1676,1.0825-2.0554,2.469-2.6635,4.1838l-5.6433,15.6162c-.6081,1.7027-.8148,3.3446-.6203,4.9135,.2067,1.5811,.9,3.0162,2.104,4.3297,1.1919,1.3135,2.9433,2.3838,5.2419,3.2108,2.3108,.8392,4.3541,1.1311,6.1176,.8878,1.7514-.2433,3.2108-.9,4.3662-1.9946,1.1553-1.0824,2.0432-2.4811,2.6513-4.1838l5.6432-15.6162c.6081-1.7027,.8271-3.3446,.6325-4.9135Zm-7.9905,1.9459l-5.8256,16.1757c-.2919,.7784-.7298,1.3379-1.3135,1.6662-.5838,.3284-1.2892,.3406-2.1162,.0365-.8148-.2919-1.35-.754-1.5932-1.3743-.2433-.6325-.2311-1.3379,.0608-2.1162l5.8378-16.1757c.2798-.7905,.7176-1.3378,1.3014-1.6662,.5838-.3283,1.2892-.3405,2.1162-.0486,.8149,.3041,1.3501,.7662,1.5932,1.3865,.2433,.6203,.2311,1.3378-.0608,2.1162Zm53.6838,22.3662l-23.5217,25.4432-9.1702-6.7622,13.4635-22.2811-.1338-.0973-17.3189,19.4352-9.1825-6.7743,17.392-29.9676,5.9472,4.3783-14.6554,23.6432,.0486,.0365,18.7176-20.6392,8.3432,6.1541-14.2054,23.9838,.0609,.0364,18.2675-20.9797,5.9473,4.3906Zm21.9892,26.7932l-4.7797,3.673-5.6554-7.3703-6.2148,4.7675,5.3513,6.9811-4.7797,3.673-5.3635-6.9811-6.75,5.1933,5.6554,7.3703-4.7797,3.6729-10.4838-13.6581,27.3162-20.9797,10.4838,13.6581Zm14.0595,26.3068l-4.5-10.3865-31.6094,13.6703,3.15,7.2729,13.0014-5.6311,.8149,1.8852c.3891,.9,.5108,1.6297,.3405,2.1648-.1581,.523-.6203,.973-1.3622,1.3135l-6.7622,3.1743-.4986,.2311c-.6933,.3406-1.3135,.6689-1.8608,1.0095-.5595,.3405-1.0338,.6933-1.4351,1.0338l3.1743,7.3459,.073-.0243c.8879-.7784,1.8973-1.4595,3.0527-2.0432,.2554-.1459,.4743-.2554,.6325-.3162l6.1054-2.8824c.9973-.4743,1.7635-1.0095,2.3108-1.6176s.9-1.3135,1.0825-2.1162c.1703-.8027,.1703-1.7635,0-2.8582l.0608-.0364c1.1067,1.4595,2.3473,2.3351,3.7216,2.6513,1.3743,.3284,2.8703,.1338,4.4635-.5595l2.9311-1.2648c1.3864-.5959,2.4689-1.4351,3.2473-2.5054,.7784-1.0581,1.1797-2.3959,1.1919-3.9892,.0122-1.5933-.4256-3.4419-1.3256-5.5217Zm-5.1325,3.8311c-.1581,.5351-.6203,.973-1.3743,1.3014l-3.904,1.6905c-.754,.3284-1.3865,.3649-1.8973,.1095-.4987-.2554-.9487-.8392-1.3379-1.7514l-1.0946-2.5054,8.1729-3.5392,1.0825,2.5175c.4014,.9001,.5108,1.6298,.3527,2.1771Zm15.7257,38.7365c-.5838,1.654-1.5203,2.9432-2.8095,3.8554-1.2892,.9243-2.8216,1.5203-4.6216,1.7879l-3.077,.4743-1.2041-7.8203,3.3689-.523c.8148-.1216,1.4473-.4378,1.8851-.9243,.45-.4987,.6081-1.1311,.4865-1.9338-.1216-.7784-.4622-1.3378-1.0338-1.6906-.5717-.3405-1.2649-.45-2.0798-.3162l-1.7392,.2676c-.5351,.073-.9851,.2797-1.3379,.6081-.3649,.3284-.6202,.7906-.7783,1.3622l-1.4716,5.5581c-.3649,1.3865-.8392,2.5784-1.4351,3.5757-.5838,.9973-1.35,1.8122-2.2743,2.4446-.9365,.6324-2.0554,1.0581-3.3568,1.2527l-2.3351,.3649c-1.7879,.2676-3.4419,.1581-4.95-.3283-1.496-.4987-2.7852-1.4595-3.8311-2.8946-1.0581-1.423-1.7756-3.3568-2.1527-5.777-.3649-2.4203-.2676-4.4757,.3162-6.1541,.5838-1.6784,1.5082-2.9797,2.7974-3.9163,1.2892-.9243,2.8216-1.5324,4.6216-1.8l3.4905-.5351,1.1919,7.8324-3.7702,.5716c-.827,.1338-1.4595,.4501-1.8973,.9609-.4257,.523-.5838,1.204-.45,2.0676,.1338,.8635,.4864,1.4716,1.0459,1.8364,.5716,.3528,1.2648,.4743,2.104,.3528l1.9824-.3162c.5717-.0851,1.0581-.3162,1.4595-.6811s.6811-.8757,.8514-1.5203l1.4108-5.4244c.3649-1.35,.8635-2.5297,1.4959-3.5392,.6325-.9973,1.4109-1.8122,2.3595-2.4446,.9487-.6325,2.0676-1.0338,3.3325-1.2284l1.8243-.2797c1.7878-.2797,3.4418-.1703,4.9499,.3284,1.496,.4864,2.7852,1.4351,3.8311,2.8337,1.0581,1.4109,1.7635,3.296,2.1284,5.6676,.3649,2.3716,.2554,4.3783-.3284,6.0446Zm-12.4297,35.9027c-3.1621,24.2878-12.7216,47.4568-27.6325,66.977l-5.3149-4.0622c14.1933-18.5959,23.3027-40.6459,26.3189-63.7906l6.6284,.8757Zm-246.2594,62.9148l-5.327,4.0622c-14.8986-19.5203-24.4581-42.6892-27.6204-66.977l6.6285-.8757c3.0162,23.1446,12.1256,45.1946,26.3189,63.7906Zm-10.3013-105.2513l-1.873,12.6608-34.8203-.0364,1.1919-7.9905,28.5933,.8878,.0243-.1703-27.6325-7.4432,1.1798-7.9419,33.3365,10.0338Zm10.1796-29.846l-6.5674,15.9203-31.8406-13.1473,6.5798-15.9203,5.5704,2.2987-3.5516,8.5987,7.2366,2.9919,3.3689-8.1365,5.5702,2.2986-3.3689,8.1365,7.8811,3.2595,3.5514-8.5987,5.5702,2.2986ZM145.0459,30.2351l-12.3323,3.4176,4.2568,34.5648,7.8202-2.1648-1.0459-6.5554,5.1202-1.423,2.4811,6.1541,7.8567-2.177-14.1568-31.8163Zm-2.1771,23.777l-2.7487-17.2338,.1583-.0364,6.5188,16.1878-3.9284,1.0824Zm-15.6647,19.0338l-6.9811,3.746-16.2975-30.3446,6.9812-3.746,16.2973,30.3446Zm-16.346,9.4621l-12.6974,10.5081-21.9648-26.5257,6.1054-5.0594,18.1217,21.8919,6.5918-5.4608,3.8433,4.6459Zm-24.1053,16.3217c-.7055-1.423-1.7756-2.6757-3.2352-3.7581l-13.3177-9.9243c-1.4472-1.0825-2.9553-1.7514-4.5243-2.019-1.5568-.2675-3.1378-.0243-4.7431,.7419-1.6055,.7661-3.1379,2.1405-4.6095,4.1107-1.4594,1.9582-2.323,3.8189-2.6027,5.5703-.2797,1.7635-.0607,3.3446,.6325,4.7675,.7054,1.423,1.7756,2.6879,3.2352,3.7703l13.3175,9.9121c1.4472,1.0825,2.9553,1.7635,4.5243,2.019,1.569,.2675,3.1501,.0122,4.7554-.754,1.6053-.7662,3.1378-2.1284,4.5972-4.0865,1.4595-1.9703,2.3352-3.8433,2.615-5.5946,.2797-1.7514,.0607-3.3446-.6446-4.7554Zm-7.0906,6.5432c-.5107,.6933-1.1066,1.0703-1.7756,1.1189-.669,.0608-1.3378-.1703-2.019-.6689l-13.7797-10.2649c-.669-.4987-1.0825-1.0825-1.2162-1.7392-.1459-.6568,.0487-1.3257,.5716-2.0311,.5109-.7054,1.1068-1.0703,1.7756-1.1311,.669-.0486,1.3501,.1703,2.019,.6689l13.7797,10.277c.669,.4987,1.0826,1.0703,1.2162,1.7271,.1461,.6567-.0485,1.3378-.5716,2.0432ZM207.377,28.5081l-.7054,5.9838-5.5581-.6446-3.2838,28.2162-7.8689-.9122,3.2837-28.2283-5.5093-.6325,.7054-5.9959,18.9364,2.2135Zm32.6291,83.7722v25.7708H120.0061v-25.7708h18.717v9.2916h15.0441v-9.2916h18.717v9.1213h15.0441v-9.1213h18.7169v9.2916h15.032v-9.2916h18.7291Zm0,40v61.7573c0,8.3187-.3162,14.7279-6.0809,23.679-3.1985,4.962-8.8051,10.2402-12.6482,12.9644v-41.3621h-15.032v50.6294c-5.4363,4.4877-13.9252,9.7659-18.7169,12.332v-120h18.7169v40.5472h15.032v-40.5472h18.7291Zm-67.522,0v120c-4.7918-2.5661-13.2685-7.8443-18.717-12.332v-50.6294h-15.0441v41.3621c-3.8432-2.7242-9.4375-8.0024-12.6361-12.9644-5.7647-8.951-6.0809-15.3603-6.0809-23.679v-61.7573h18.717v40.5472h15.0441v-40.5472h18.717Z"/></g></g></svg>