<?xml version="1.0" encoding="UTF-8"?>
<svg version="1.1" xmlns="http://www.w3.org/2000/svg" width="480" height="480">
<path d="M0 0 C158.4 0 316.8 0 480 0 C480 158.4 480 316.8 480 480 C321.6 480 163.2 480 0 480 C0 321.6 0 163.2 0 0 Z " fill="#FEFEFE" transform="translate(0,0)"/>
<path d="M0 0 C1.11955078 -0.00773438 2.23910156 -0.01546875 3.39257812 -0.0234375 C22.60581281 0.02163754 39.5246169 7.55136681 53.5234375 20.68359375 C69.07454548 37.21608233 73.71798249 56.50711158 73.2421875 78.6484375 C72.20314097 103.81740757 60.04448054 125.36964783 42.9375 143.25 C42.33808594 143.91257812 41.73867188 144.57515625 41.12109375 145.2578125 C18.31624903 169.58954747 -16.22724417 181.90595831 -48.0625 188.25 C-48.92020996 188.42112305 -49.77791992 188.59224609 -50.66162109 188.76855469 C-73.35258367 193.16620378 -97.24169448 194.06968706 -120.0625 190.25 C-121.4915271 190.07145536 -122.92126942 189.89857093 -124.3515625 189.73046875 C-148.23738117 186.74569644 -174.20939452 177.96223345 -192.0625 161.25 C-192.98417969 160.40695312 -193.90585938 159.56390625 -194.85546875 158.6953125 C-206.49717809 147.60348147 -217.03764759 131.8339754 -218.0625 115.25 C-217.59765625 112.9765625 -217.59765625 112.9765625 -217.0625 111.25 C-216.73378906 111.85585938 -216.40507812 112.46171875 -216.06640625 113.0859375 C-206.52228388 129.89807718 -192.53133 140.77479029 -174.1953125 146.70703125 C-158.25334414 150.7655177 -140.1221516 149.75827394 -125.0625 143.25 C-124.45374023 142.99299316 -123.84498047 142.73598633 -123.21777344 142.47119141 C-104.07585643 134.24370254 -92.2766462 120.39468802 -84.28833008 101.41015625 C-82.36336652 96.57906126 -81.27575054 91.88197544 -80.5 86.75 C-80.3134082 85.58476807 -80.3134082 85.58476807 -80.12304688 84.39599609 C-79.41852852 79.90332271 -78.82050376 75.40566815 -78.29663086 70.88867188 C-76.26562698 53.42076783 -71.08802665 37.4858045 -59.0625 24.25 C-58.40894531 23.50492188 -57.75539063 22.75984375 -57.08203125 21.9921875 C-42.04851879 5.83595371 -21.45367306 -0.14872564 0 0 Z " fill="#029DCC" transform="translate(392.0625,166.75)"/>
<path d="M0 0 C0.73476563 0.66257813 1.46953125 1.32515625 2.2265625 2.0078125 C2.98195313 2.67039063 3.73734375 3.33296875 4.515625 4.015625 C15.76637901 14.49313131 23.95490968 28.71784162 26.2265625 44.0078125 C26.3515625 47.5703125 26.3515625 47.5703125 26.2265625 50.0078125 C24.60542829 47.8810034 23.0420609 45.73723856 21.53515625 43.52734375 C11.00221312 28.28865985 -3.29214244 18.90277941 -21.33203125 14.63671875 C-42.87835436 11.05669863 -63.16357717 14.12364257 -81.19921875 26.69921875 C-83.46147421 28.39876192 -85.62712197 30.1646026 -87.7734375 32.0078125 C-88.36640625 32.50539062 -88.959375 33.00296875 -89.5703125 33.515625 C-105.12675479 47.71623058 -110.83245253 68.41272603 -112.7734375 88.6328125 C-114.40217843 105.44877562 -118.98308542 121.69742066 -129.7734375 135.0078125 C-130.39089844 135.78769531 -131.00835937 136.56757813 -131.64453125 137.37109375 C-143.31208235 151.33928873 -161.08421496 158.92605509 -178.7734375 162.0078125 C-182.66716645 162.22435318 -186.56174312 162.19293639 -190.4609375 162.1953125 C-191.49927734 162.20755859 -192.53761719 162.21980469 -193.60742188 162.23242188 C-212.09045756 162.26718621 -227.88046762 156.15827429 -241.7734375 144.0078125 C-242.38960937 143.48703125 -243.00578125 142.96625 -243.640625 142.4296875 C-254.94740253 132.11290431 -263.08060353 115.67677657 -263.91870117 100.3515625 C-264.16035336 70.08527568 -258.70079331 44.89933993 -237.7734375 22.0078125 C-237.03867188 21.19183594 -236.30390625 20.37585938 -235.546875 19.53515625 C-181.90741748 -37.06433822 -61.51897607 -52.46601638 0 0 Z " fill="#019DCC" transform="translate(275.7734375,156.9921875)"/>
<path d="M0 0 C11.44912128 7.33258329 19.57458987 18.07097466 22.8125 31.3125 C23.25599291 34.90676816 23.33746579 38.44340907 23.3125 42.0625 C23.30677979 43.02897461 23.30105957 43.99544922 23.29516602 44.99121094 C22.96493151 58.26730519 17.84551567 68.87348156 8.71484375 78.53125 C-2.5054308 89.13807038 -15.38794864 92.73415176 -30.4921875 92.58984375 C-43.84116795 91.58796467 -55.04580481 85.30730325 -64.1484375 75.73828125 C-74.48178745 63.44515804 -77.0713702 50.02574798 -76.1875 34.3125 C-74.04438532 21.23586803 -66.01667665 9.4910067 -55.5625 1.625 C-38.06420115 -9.79604536 -18.20868327 -9.9800264 0 0 Z " fill="#F8AA0F" transform="translate(264.1875,199.6875)"/>
<path d="M0 0 C1.56971558 -0.00430527 1.56971558 -0.00430527 3.17114258 -0.00869751 C5.38005109 -0.01073578 7.58897775 -0.00522254 9.79785156 0.00732422 C13.17554146 0.02338065 16.55203475 0.00746687 19.9296875 -0.01171875 C22.07812764 -0.00973628 24.22656703 -0.00589252 26.375 0 C27.38344971 -0.00607269 28.39189941 -0.01214539 29.4309082 -0.0184021 C38.26288032 0.07002686 38.26288032 0.07002686 42.1875 3.3984375 C45.08001796 9.18347341 42.41847307 16.02702694 40.6875 21.8359375 C39.8625 24.6615625 39.0375 27.4871875 38.1875 30.3984375 C31.2575 30.3984375 24.3275 30.3984375 17.1875 30.3984375 C17.9375 19.8984375 17.9375 19.8984375 20.1875 15.3984375 C13.9175 15.7284375 7.6475 16.0584375 1.1875 16.3984375 C-2.61406767 32.03210334 -6.37891105 47.66962482 -9.94580078 63.35888672 C-10.1776709 64.3748291 -10.40954102 65.39077148 -10.6484375 66.4375 C-10.85001465 67.32646973 -11.0515918 68.21543945 -11.25927734 69.13134766 C-11.8125 71.3984375 -11.8125 71.3984375 -12.8125 74.3984375 C-6.8725 74.0684375 -0.9325 73.7384375 5.1875 73.3984375 C6.5075 67.7884375 7.8275 62.1784375 9.1875 56.3984375 C6.61588542 56.17057292 4.04427083 55.94270833 1.47265625 55.71484375 C-0.8125 55.3984375 -0.8125 55.3984375 -1.8125 54.3984375 C-1.76171875 52.5078125 -1.76171875 52.5078125 -1.5 50.1484375 C-1.42136719 49.38015625 -1.34273438 48.611875 -1.26171875 47.8203125 C-0.8125 45.3984375 -0.8125 45.3984375 1.1875 40.3984375 C12.4075 40.3984375 23.6275 40.3984375 35.1875 40.3984375 C34.56146786 44.78066248 33.93154154 48.83148952 32.91796875 53.09375 C32.67111328 54.13378174 32.42425781 55.17381348 32.16992188 56.24536133 C30.86296308 61.63496074 29.53444493 67.01870191 28.1875 72.3984375 C27.90253662 73.56898682 27.90253662 73.56898682 27.61181641 74.76318359 C27.1624922 76.58556511 26.67716292 78.3989781 26.1875 80.2109375 C25.94 81.14550781 25.6925 82.08007812 25.4375 83.04296875 C23.70175611 86.31376114 21.53597397 87.97726108 18.1875 89.3984375 C14.40401465 89.99229916 10.6639117 89.98295858 6.83984375 89.96484375 C5.75038956 89.97104233 4.66093536 89.97724091 3.53846741 89.98362732 C1.24139294 89.99071436 -1.05573301 89.98757108 -3.3527832 89.97485352 C-6.86700731 89.96096908 -10.37857792 89.99510099 -13.89257812 90.03320312 C-16.12760482 90.03415418 -18.36263484 90.03229624 -20.59765625 90.02734375 C-21.64671646 90.04060196 -22.69577667 90.05386017 -23.77662659 90.06752014 C-28.56198565 90.0064014 -31.03761503 89.95112497 -35.01464844 87.11450195 C-36.86086781 84.32536689 -37.39513876 83.51155215 -36.79296875 80.3125 C-36.58679932 79.14122559 -36.58679932 79.14122559 -36.37646484 77.94628906 C-36.19035645 77.10549805 -36.00424805 76.26470703 -35.8125 75.3984375 C-35.62510254 74.50866211 -35.43770508 73.61888672 -35.24462891 72.70214844 C-34.58101662 69.71409683 -33.86072582 66.7445304 -33.125 63.7734375 C-32.86025879 62.68603271 -32.59551758 61.59862793 -32.32275391 60.47827148 C-30.2850448 52.1643461 -28.13317744 43.8818796 -25.92749023 35.61108398 C-24.74744773 31.14825744 -23.63272477 26.69080285 -22.6875 22.171875 C-22.51621582 21.35323975 -22.34493164 20.53460449 -22.16845703 19.69116211 C-21.86015772 18.18143448 -21.56320382 16.66931904 -21.28076172 15.15454102 C-20.15311155 9.58884855 -18.25232949 5.44256151 -13.85107422 1.75512695 C-9.28404333 -0.28400133 -4.94728507 -0.02979161 0 0 Z " fill="#FAFDFE" transform="translate(379.8125,197.6015625)"/>
<path d="M0 0 C0.95627792 -0.00191345 1.91255585 -0.0038269 2.89781189 -0.00579834 C4.91242741 -0.00715506 6.92705183 -0.00349457 8.94165039 0.00488281 C12.02054498 0.01560133 15.09885768 0.00496394 18.17773438 -0.0078125 C20.1393242 -0.00649105 22.10091366 -0.00392894 24.0625 0 C24.98031754 -0.00404846 25.89813507 -0.00809692 26.84376526 -0.01226807 C35.16651129 0.04865987 35.16651129 0.04865987 38.96484375 2.265625 C41.74438583 6.43493813 40.84686935 9.56355894 39.96484375 14.265625 C36.58208842 29.64838033 36.58208842 29.64838033 34.96484375 31.265625 C33.47612515 31.35231932 31.98339875 31.37265994 30.4921875 31.36328125 C29.59306641 31.36005859 28.69394531 31.35683594 27.76757812 31.35351562 C26.82205078 31.34513672 25.87652344 31.33675781 24.90234375 31.328125 C23.95294922 31.32361328 23.00355469 31.31910156 22.02539062 31.31445312 C19.6718131 31.3026261 17.31835898 31.28614525 14.96484375 31.265625 C13.33113108 25.34747381 15.22927677 21.02770738 16.96484375 15.265625 C11.35484375 15.265625 5.74484375 15.265625 -0.03515625 15.265625 C-0.34453125 16.85375 -0.65390625 18.441875 -0.97265625 20.078125 C-1.5243942 22.91037982 -2.12108603 25.52341434 -3.03515625 28.265625 C-2.50148437 28.48992187 -1.9678125 28.71421875 -1.41796875 28.9453125 C1.7570907 30.70460774 4.36594682 33.01884549 7.08984375 35.390625 C11.15626908 38.88844001 15.24823294 42.32305133 19.46484375 45.640625 C20.25503906 46.27742188 21.04523438 46.91421875 21.859375 47.5703125 C23.13260023 48.59550684 24.41848345 49.60560331 25.7265625 50.5859375 C27.15234375 51.765625 27.15234375 51.765625 28.96484375 54.265625 C28.52218659 60.63417636 27.08896847 66.80626225 25.65234375 73.015625 C25.45189453 73.94761719 25.25144531 74.87960937 25.04492188 75.83984375 C23.05317204 84.43581671 23.05317204 84.43581671 18.96484375 87.265625 C14.00628925 89.96369816 8.83063753 89.58920613 3.3359375 89.6015625 C2.30928482 89.6082193 1.28263214 89.6148761 0.22486877 89.62173462 C-1.94113375 89.63184165 -4.10716728 89.63655224 -6.27319336 89.63623047 C-9.58954802 89.64061428 -12.90458283 89.67698457 -16.22070312 89.71484375 C-18.32681837 89.72071012 -20.43293993 89.72468071 -22.5390625 89.7265625 C-23.53079971 89.74093353 -24.52253693 89.75530457 -25.54432678 89.77011108 C-32.36350633 89.7247259 -32.36350633 89.7247259 -35.66821289 87.46582031 C-39.18424737 81.80650566 -36.57366119 73.97571363 -35.16015625 67.890625 C-34.98613281 67.08496094 -34.81210937 66.27929688 -34.6328125 65.44921875 C-33.29276583 59.52323458 -33.29276583 59.52323458 -31.03515625 57.265625 C-28.97216797 57.03857422 -28.97216797 57.03857422 -26.46484375 57.0703125 C-25.56894531 57.07675781 -24.67304687 57.08320313 -23.75 57.08984375 C-22.81285156 57.10660156 -21.87570313 57.12335938 -20.91015625 57.140625 C-19.96527344 57.14964844 -19.02039063 57.15867188 -18.046875 57.16796875 C-15.70938333 57.19157978 -13.37239502 57.22450984 -11.03515625 57.265625 C-11.15250138 58.59965382 -11.27957801 59.9328264 -11.41015625 61.265625 C-11.47976562 62.008125 -11.549375 62.750625 -11.62109375 63.515625 C-12.16790298 67.14726367 -13.14442622 70.70270488 -14.03515625 74.265625 C-8.42515625 74.265625 -2.81515625 74.265625 2.96484375 74.265625 C3.45984375 72.1928125 3.45984375 72.1928125 3.96484375 70.078125 C4.24328125 68.91216797 4.24328125 68.91216797 4.52734375 67.72265625 C4.67171875 66.91183594 4.81609375 66.10101563 4.96484375 65.265625 C5.11179688 64.45738281 5.25875 63.64914062 5.41015625 62.81640625 C4.7137873 58.82755604 1.85851021 57.04118734 -1.16015625 54.640625 C-1.7830957 54.1257251 -2.40603516 53.6108252 -3.04785156 53.08032227 C-8.14407903 48.89541267 -13.33971115 44.82099227 -18.59033203 40.83154297 C-21.27805958 38.76905009 -23.13568628 37.11482996 -25.03515625 34.265625 C-25.49951727 28.00358006 -24.41210845 22.6054596 -22.78515625 16.578125 C-22.58019531 15.74990234 -22.37523438 14.92167969 -22.1640625 14.06835938 C-20.91651472 9.34658007 -19.71728263 5.68007907 -16.03515625 2.265625 C-10.71717915 -0.08797938 -5.70307633 -0.02521168 0 0 Z " fill="#FAFDFE" transform="translate(89.03515625,197.734375)"/>
<path d="M0 0 C0.66 0.33 1.32 0.66 2 1 C-0.97 4.96 -0.97 4.96 -4 9 C-4.99 8.67 -5.98 8.34 -7 8 C-4.69 5.36 -2.38 2.72 0 0 Z " fill="#F8AF21" transform="translate(204,205)"/>
<path d="M0 0 C3.24732932 1.62366466 3.70155136 4.75387839 5 8 C3.68 8 2.36 8 1 8 C0.67 5.36 0.34 2.72 0 0 Z " fill="#33ADD4" transform="translate(174,278)"/>
</svg>
