<?xml version="1.0" encoding="UTF-8"?>
<svg version="1.1" xmlns="http://www.w3.org/2000/svg" width="1280" height="720">
<path d="M0 0 C422.4 0 844.8 0 1280 0 C1280 237.6 1280 475.2 1280 720 C857.6 720 435.2 720 0 720 C0 482.4 0 244.8 0 0 Z " fill="#FEFEFE" transform="translate(0,0)"/>
<path d="M0 0 C7.51824128 7.01924297 13.72630205 17.46509678 14.32421875 27.88671875 C14.34796532 29.47378122 14.34868671 31.06133057 14.328125 32.6484375 C14.31910156 33.48439453 14.31007813 34.32035156 14.30078125 35.18164062 C13.97310422 46.91429887 9.66219282 55.56071171 1.890625 64.3359375 C-0.97417194 66.88982625 -3.93424465 69.18243474 -7.109375 71.3359375 C-4.33863127 73.89603989 -1.74605103 75.30608234 1.890625 76.3359375 C7.11523629 75.88505411 11.9985351 74.5246371 17.03955078 73.11865234 C21.35408054 71.93417021 25.69730281 70.87007917 30.03955078 69.79248047 C32.44394174 69.19553947 34.84726642 68.59428746 37.24951172 67.98876953 C49.72508929 64.84490367 62.25444252 61.77495424 74.890625 59.3359375 C75.44586342 56.49805222 75.60130201 55.0953248 74.890625 52.3359375 C68.47241891 43.09430287 59.37501136 37.03665909 49.890625 31.3359375 C50.179375 30.4284375 50.468125 29.5209375 50.765625 28.5859375 C51.57215964 23.43249538 48.6411323 19.60683988 46.265625 15.21875 C44.49409062 11.50456713 44.27918279 9.35398633 44.890625 5.3359375 C45.220625 4.6759375 45.550625 4.0159375 45.890625 3.3359375 C49.3683743 4.89604933 52.16286527 6.96766076 55.140625 9.3359375 C56.47867188 10.3878125 56.47867188 10.3878125 57.84375 11.4609375 C58.85695313 12.3890625 58.85695313 12.3890625 59.890625 13.3359375 C59.890625 13.9959375 59.890625 14.6559375 59.890625 15.3359375 C60.880625 15.0059375 61.870625 14.6759375 62.890625 14.3359375 C63.51368669 11.40754758 63.75634381 10.1469774 62.890625 7.3359375 C59.85083146 3.96549975 56.4517842 1.14035037 52.890625 -1.6640625 C53.220625 -2.6540625 53.550625 -3.6440625 53.890625 -4.6640625 C61.29829846 -5.2231322 68.53620372 -4.01822996 74.55712891 0.61962891 C77.2882568 3.25444902 78.73047959 5.2669335 79.30029297 9.07055664 C79.33781923 12.26157388 79.2163349 15.4010879 79.015625 18.5859375 C78.56142116 26.59732017 78.8619336 32.71751627 82.01123047 40.18261719 C82.890625 42.3359375 82.890625 42.3359375 82.890625 44.3359375 C83.880625 44.1915625 84.870625 44.0471875 85.890625 43.8984375 C90.43996519 43.92600926 92.81632584 46.10266805 95.9765625 49.18359375 C104.41752971 58.67537524 108.89637764 72.28843699 109.203125 84.9609375 C109.46028776 90.91241862 112.31176617 95.41326099 115.07495117 100.54394531 C117.80209394 105.74865558 118.91414933 109.39949638 117.890625 115.3359375 C117.230625 115.9959375 116.570625 116.6559375 115.890625 117.3359375 C112.08051885 117.25310911 110.39880827 116.83000457 107.640625 114.1484375 C105.8436406 111.26042686 104.80248713 108.60344348 103.890625 105.3359375 C102.405625 106.3259375 102.405625 106.3259375 100.890625 107.3359375 C98.91796875 107.4609375 98.91796875 107.4609375 96.828125 107.3359375 C95.52875 107.3359375 94.229375 107.3359375 92.890625 107.3359375 C92.230625 107.9959375 91.570625 108.6559375 90.890625 109.3359375 C88.78125 110.01855469 88.78125 110.01855469 86.140625 110.6328125 C85.15271973 110.86621338 84.16481445 111.09961426 83.14697266 111.34008789 C82.07237793 111.58621826 80.9977832 111.83234863 79.890625 112.0859375 C78.77864746 112.34689209 77.66666992 112.60784668 76.52099609 112.87670898 C70.72424004 114.23302472 64.9205177 115.55886676 59.1171875 116.88671875 C56.91666348 117.39061108 54.71614261 117.89451717 52.515625 118.3984375 C51.43982178 118.64384277 50.36401855 118.88924805 49.25561523 119.14208984 C41.65430485 120.88969057 34.10550441 122.79023292 26.58642578 124.86352539 C23.59509331 125.67980425 21.00777322 126.3359375 17.890625 126.3359375 C18.00543213 126.90997314 18.12023926 127.48400879 18.23852539 128.07543945 C18.48590454 129.31233521 18.48590454 129.31233521 18.73828125 130.57421875 C18.92769287 131.52111572 19.11710449 132.4680127 19.31225586 133.44360352 C19.74951652 135.63023995 20.18651709 137.8169284 20.62329102 140.00366211 C21.79130879 145.849353 22.96195767 151.69446839 24.14128113 157.53788757 C27.19311114 172.66201338 30.1963137 187.791562 33.015625 202.9609375 C35.92249738 218.59292302 38.8414947 234.22768998 42.3125 249.74609375 C42.54509521 250.78950928 42.77769043 251.8329248 43.01733398 252.90795898 C43.46012589 254.87916324 43.90967841 256.84886665 44.36743164 258.81665039 C45.48824953 263.78595633 46.13489747 268.24111161 45.890625 273.3359375 C47.045625 273.2534375 48.200625 273.1709375 49.390625 273.0859375 C55.15713438 273.0859375 59.59829909 275.33015233 63.890625 279.0859375 C66.05855988 283.96379099 65.37903244 288.03351766 63.578125 292.8359375 C56.52570362 303.66115774 40.61110759 310.17556501 28.453125 312.859375 C15.84412605 314.54610512 3.09884166 315.07797928 -8.109375 308.3359375 C-8.96402344 307.82804687 -9.81867188 307.32015625 -10.69921875 306.796875 C-20.91747895 300.15264417 -29.17312596 291.58331644 -34.421875 280.5859375 C-35.74612933 274.32582613 -36.55457066 267.79277012 -33.234375 262.1484375 C-31.109375 260.3359375 -31.109375 260.3359375 -29.109375 259.3359375 C-28.09138363 257.58907139 -28.09138363 257.58907139 -27.171875 255.5234375 C-26.03420475 253.11600794 -25.12239897 251.35082203 -23.359375 249.3359375 C-19.82763433 243.68515242 -22.8168283 234.57286507 -24.046875 228.4609375 C-24.22927734 227.5121875 -24.41167969 226.5634375 -24.59960938 225.5859375 C-25.43341101 220.82391546 -25.43341101 220.82391546 -27.109375 216.3359375 C-27.33077148 217.52856201 -27.55216797 218.72118652 -27.78027344 219.94995117 C-28.62223276 224.48470998 -29.46483972 229.01934826 -30.30761719 233.55395508 C-30.66846388 235.49598086 -31.02914766 237.43803693 -31.38964844 239.38012695 C-32.26940149 244.11924361 -33.15184274 248.85782558 -34.03955078 253.59545898 C-34.76543446 257.47275725 -35.47523387 261.35257934 -36.17529297 265.23461914 C-36.52040277 267.11736952 -36.86561369 269.00010136 -37.2109375 270.8828125 C-37.36326843 271.74533127 -37.51559937 272.60785004 -37.67254639 273.49650574 C-38.8259382 279.72281744 -40.74219836 284.94158309 -44.109375 290.3359375 C-45.33108911 292.37667572 -45.33108911 292.37667572 -46.109375 294.3359375 C-45.779375 294.9959375 -45.449375 295.6559375 -45.109375 296.3359375 C-44.53794643 303.30736607 -44.53794643 303.30736607 -46.671875 307.1484375 C-54.53198403 314.2023815 -65.0802553 313.84715003 -75.03466797 313.49414062 C-79.24874436 313.17280366 -83.26371371 312.07221621 -87.33984375 311.01171875 C-93.51160742 309.50577359 -98.14932529 310.52663669 -104.109375 312.3359375 C-114.03184268 314.03177743 -126.0148258 315.31220027 -135.109375 310.3359375 C-137.65720281 308.1133643 -139.59871166 306.35726419 -141.109375 303.3359375 C-141.24554678 300.27207234 -141.27150857 297.8223382 -140.296875 294.8984375 C-140.04297908 291.42852657 -141.68634425 290.2559693 -143.71875 287.609375 C-149.53801629 278.09585539 -150.59827117 263.8677931 -152.91577148 253.14355469 C-154.26984208 246.91074733 -155.75630236 240.76178674 -157.53808594 234.63647461 C-158.23674334 231.82303499 -158.34329266 229.22092196 -158.109375 226.3359375 C-158.769375 226.3359375 -159.429375 226.3359375 -160.109375 226.3359375 C-160.16001099 227.18273071 -160.16001099 227.18273071 -160.21166992 228.04663086 C-160.79863962 235.56299958 -162.5175502 242.6188267 -164.421875 249.8984375 C-165.06247033 252.38639148 -165.70179742 254.87467235 -166.33984375 257.36328125 C-166.64712402 258.55937012 -166.9544043 259.75545898 -167.27099609 260.98779297 C-168.17511884 264.59849166 -168.98849467 268.221135 -169.77685547 271.85839844 C-171.14149507 278.12962375 -172.84741283 283.73838757 -176.05859375 289.35546875 C-177.13051723 291.37578549 -177.75446448 293.07870657 -178.109375 295.3359375 C-177.779375 295.9959375 -177.449375 296.6559375 -177.109375 297.3359375 C-176.61627474 300.36498195 -176.62235202 302.45855258 -178.1328125 305.1796875 C-181.97940291 310.19513135 -186.02053552 311.9077061 -192.109375 313.3359375 C-195.25024511 313.71691798 -198.32343886 313.76495125 -201.484375 313.7109375 C-202.31364502 313.70586182 -203.14291504 313.70078613 -203.99731445 313.69555664 C-209.60771053 313.58099164 -214.48129663 312.69458351 -219.828125 310.9453125 C-224.68646275 309.64753735 -228.99266142 311.02115114 -233.75390625 312.36328125 C-238.38742502 313.52366714 -242.84930937 313.70329695 -247.609375 313.7109375 C-248.41246094 313.73542969 -249.21554687 313.75992187 -250.04296875 313.78515625 C-257.13408699 313.81963494 -262.38495464 311.85602633 -267.609375 307.0234375 C-269.5417065 303.56134356 -269.46516353 301.24961135 -269.109375 297.3359375 C-268.861875 296.6346875 -268.614375 295.9334375 -268.359375 295.2109375 C-267.8552506 293.10823432 -267.8552506 293.10823432 -269.859375 291.0234375 C-270.601875 290.1365625 -271.344375 289.2496875 -272.109375 288.3359375 C-274.96628853 282.50722115 -276.48658592 276.49261413 -278.046875 270.2109375 C-279.94797099 262.69739293 -281.94172342 255.29478622 -284.4453125 247.95703125 C-285.19395196 245.00210725 -285.22529571 242.37216843 -285.109375 239.3359375 C-285.769375 239.3359375 -286.429375 239.3359375 -287.109375 239.3359375 C-287.23892578 240.32207031 -287.23892578 240.32207031 -287.37109375 241.328125 C-288.66861178 250.1131553 -290.95613439 258.48170682 -293.43603516 266.98828125 C-294.1068234 269.32704113 -294.74263337 271.67298585 -295.37109375 274.0234375 C-295.78349685 275.52353578 -296.19624431 277.02353944 -296.609375 278.5234375 C-296.78637939 279.20559326 -296.96338379 279.88774902 -297.14575195 280.59057617 C-298.18850406 284.28702505 -299.42374686 286.93526805 -301.796875 289.9765625 C-303.66334743 292.42198703 -304.09918296 293.02295708 -304.203125 296.21484375 C-304.0071875 297.10042969 -303.81125 297.98601562 -303.609375 298.8984375 C-303.02796554 303.0538051 -302.91600611 303.97498224 -304.984375 307.8359375 C-311.94362851 314.32623862 -321.58109663 313.96424476 -330.53515625 313.68359375 C-344.68762626 312.86046698 -359.31861 306.69108244 -369.109375 296.3359375 C-372.01758316 292.79155881 -372.7098823 289.76181821 -372.5234375 285.26171875 C-371.78947652 281.84810779 -369.80759716 280.38893262 -367.109375 278.3359375 C-362.62133718 275.50652235 -359.38267106 275.01953974 -354.109375 275.3359375 C-354.19445312 273.89541016 -354.19445312 273.89541016 -354.28125 272.42578125 C-354.27643746 267.63128892 -352.82848686 263.42167502 -351.359375 258.8984375 C-349.42125032 252.70211385 -347.56798377 246.52341886 -346.046875 240.2109375 C-344.1337507 232.31495177 -341.96911823 224.49969824 -339.76806641 216.6796875 C-338.62401865 212.60894677 -337.49194673 208.53488289 -336.359375 204.4609375 C-336.14869385 203.70570801 -335.9380127 202.95047852 -335.72094727 202.17236328 C-334.81077864 198.90231869 -333.92254709 195.63137653 -333.109375 192.3359375 C-334.857948 192.35950317 -334.857948 192.35950317 -336.6418457 192.38354492 C-340.96355286 192.43781284 -345.28522985 192.47227609 -349.60717773 192.50073242 C-351.47832299 192.51582623 -353.34943283 192.53630339 -355.22045898 192.56225586 C-357.90878026 192.59861343 -360.59663413 192.61565765 -363.28515625 192.62890625 C-364.54154655 192.65213203 -364.54154655 192.65213203 -365.82331848 192.67582703 C-371.71176586 192.67753637 -371.71176586 192.67753637 -373.72550964 190.94746399 C-374.18218521 190.41566025 -374.63886078 189.88385651 -375.109375 189.3359375 C-377.82824472 186.45661595 -377.82824472 186.45661595 -381.109375 184.3359375 C-381.109375 226.5759375 -381.109375 268.8159375 -381.109375 312.3359375 C-399.589375 312.3359375 -418.069375 312.3359375 -437.109375 312.3359375 C-437.109375 264.4859375 -437.109375 216.6359375 -437.109375 167.3359375 C-424.239375 167.0059375 -411.369375 166.6759375 -398.109375 166.3359375 C-399.099375 164.6859375 -400.089375 163.0359375 -401.109375 161.3359375 C-402.50331108 157.09706755 -402.65177335 152.74798382 -402.109375 148.3359375 C-400.734375 145.7734375 -400.734375 145.7734375 -398.109375 144.3359375 C-390.93244272 143.11186467 -385.38656766 144.96735782 -379.109375 148.3359375 C-378.449375 148.6659375 -377.789375 148.9959375 -377.109375 149.3359375 C-376.8 148.6965625 -376.490625 148.0571875 -376.171875 147.3984375 C-375.109375 145.3359375 -375.109375 145.3359375 -374.109375 144.3359375 C-372.33239174 144.17979388 -370.54954442 144.08989375 -368.7668457 144.02636719 C-367.62508377 143.98251892 -366.48332184 143.93867065 -365.30696106 143.89349365 C-364.06226547 143.84871887 -362.81756989 143.80394409 -361.53515625 143.7578125 C-358.92247778 143.64828063 -356.30984868 143.53756599 -353.69726562 143.42578125 C-349.56101948 143.25117053 -345.42479262 143.08381932 -341.28735352 142.93994141 C-337.30624366 142.80070513 -333.32722047 142.62345391 -329.34765625 142.4453125 C-328.11308182 142.40863464 -326.87850739 142.37195679 -325.60652161 142.33416748 C-318.4200764 142.10539383 -318.4200764 142.10539383 -312.28198242 138.76660156 C-311.56502197 137.96448242 -310.84806152 137.16236328 -310.109375 136.3359375 C-310.79 135.6553125 -311.470625 134.9746875 -312.171875 134.2734375 C-312.62820313 133.809375 -313.08453125 133.3453125 -313.5546875 132.8671875 C-314.60235097 131.83531795 -315.68208386 130.83515021 -316.7890625 129.8671875 C-324.86590977 122.5441793 -329.5572534 112.11583281 -330.32421875 101.30859375 C-330.71472741 87.92195691 -326.45731566 78.91218677 -318.859375 68.1484375 C-310.27996158 59.37403741 -300.32928032 54.18659706 -287.984375 53.9609375 C-275.49788823 54.39525008 -264.50282956 57.76998325 -255.234375 66.5859375 C-246.68107843 75.79120949 -242.7064005 84.97272906 -242.671875 97.4609375 C-242.66716187 98.85566284 -242.66716187 98.85566284 -242.66235352 100.27856445 C-242.79515723 107.94180588 -244.27059517 113.62751243 -248.109375 120.3359375 C-248.439375 120.9959375 -248.769375 121.6559375 -249.109375 122.3359375 C-248.07232422 122.27535156 -247.03527344 122.21476563 -245.96679688 122.15234375 C-242.03818074 121.92407202 -238.10923572 121.70193465 -234.18017578 121.48144531 C-232.49486218 121.38605624 -230.80963601 121.28910665 -229.12451172 121.19042969 C-218.10296638 120.54635608 -207.15116424 120.19801092 -196.109375 120.3359375 C-195.96838379 119.22750488 -195.82739258 118.11907227 -195.68212891 116.97705078 C-194.77409244 111.20447794 -191.60896427 107.40559742 -187.15625 103.71875 C-185.51231815 102.53592099 -183.8151766 101.42765052 -182.109375 100.3359375 C-182.7384375 99.94664062 -183.3675 99.55734375 -184.015625 99.15625 C-195.50243413 91.64830548 -201.63914347 82.41398431 -205.71875 69.390625 C-207.93206318 57.74859766 -205.59187088 46.5477137 -199.359375 36.5859375 C-194.17186871 29.39120516 -188.05040031 23.37530297 -180.109375 19.3359375 C-179.49191406 19.01625 -178.87445312 18.6965625 -178.23828125 18.3671875 C-167.92673729 14.02548478 -153.90144241 15.04954323 -143.71484375 19.08203125 C-130.96218022 25.21937007 -123.69132639 34.47234017 -118.109375 47.3359375 C-114.48433768 58.21104947 -116.84331915 71.07074061 -121.109375 81.3359375 C-117.479375 81.3359375 -113.849375 81.3359375 -110.109375 81.3359375 C-110.43164062 80.48 -110.75390625 79.6240625 -111.0859375 78.7421875 C-113.04685686 72.21576887 -113.34631397 65.10668078 -110.546875 58.8359375 C-106.16309068 54.33974845 -101.70888313 50.45640297 -95.19140625 50.23828125 C-93.57298828 50.25568359 -93.57298828 50.25568359 -91.921875 50.2734375 C-90.29185547 50.28697266 -90.29185547 50.28697266 -88.62890625 50.30078125 C-87.79746094 50.31238281 -86.96601562 50.32398438 -86.109375 50.3359375 C-85.779375 47.3659375 -85.449375 44.3959375 -85.109375 41.3359375 C-83.789375 41.3359375 -82.469375 41.3359375 -81.109375 41.3359375 C-81.109375 40.6759375 -81.109375 40.0159375 -81.109375 39.3359375 C-81.955 39.1296875 -82.800625 38.9234375 -83.671875 38.7109375 C-87.81803074 37.05247521 -91.27694724 34.83876236 -94.109375 31.3359375 C-94.109375 30.0159375 -94.109375 28.6959375 -94.109375 27.3359375 C-89.08461832 27.04036358 -86.18584909 27.3076996 -82.109375 30.3359375 C-81.449375 30.9959375 -80.789375 31.6559375 -80.109375 32.3359375 C-79.51125 31.5521875 -78.913125 30.7684375 -78.296875 29.9609375 C-76.109375 27.3359375 -76.109375 27.3359375 -73.109375 25.3359375 C-72.30839311 23.25850146 -72.30839311 23.25850146 -71.796875 20.8359375 C-68.51479033 9.05104281 -61.4635522 0.81495337 -51.171875 -5.4765625 C-34.04130189 -14.92061146 -15.11291006 -11.92240683 0 0 Z " fill="#83C2EA" transform="translate(1023.109375,165.6640625)"/>
<path d="M0 0 C8.02967078 6.42128107 14.38908837 14.9679837 17 25 C18.53164073 39.63867613 17.14396799 52.40326963 7.69140625 64.17578125 C4.70371527 67.39807152 1.40737494 70.23258888 -2 73 C-1.175 73.78375 -0.35 74.5675 0.5 75.375 C3 78 3 78 3 80 C4.051875 79.98839844 5.10375 79.97679687 6.1875 79.96484375 C25.46440014 79.83104898 44.73245822 80.47023066 64 81 C64.28617188 80.23300781 64.57234375 79.46601563 64.8671875 78.67578125 C66.3683558 75.12991821 67.93020917 73.33571041 71 71 C73.88327236 70.14988052 76.12111909 70.11940113 79 71 C84.77851089 75.30149241 87.17849604 81.93843848 88.55859375 88.76171875 C89.90195369 98.6169877 89.87664773 108.73264899 86 118 C85.70996094 118.72832031 85.41992188 119.45664062 85.12109375 120.20703125 C83.08190286 124.80587599 80.75622995 128.854886 76 131 C71.17439956 131.4721478 66.45347544 131.14908881 61.625 130.8125 C59.66240234 130.70711914 59.66240234 130.70711914 57.66015625 130.59960938 C54.43799497 130.42321368 51.21924487 130.22259722 48 130 C47.67 130.66 47.34 131.32 47 132 C47 131.01 47 130.02 47 129 C46.05640625 129.01160156 45.1128125 129.02320313 44.140625 129.03515625 C42.85671875 129.04417969 41.5728125 129.05320312 40.25 129.0625 C38.99703125 129.07410156 37.7440625 129.08570313 36.453125 129.09765625 C30.94835959 129.05714159 25.47777651 128.50802883 20 128 C20.19634033 128.69971924 20.39268066 129.39943848 20.5949707 130.12036133 C21.50122141 133.35096003 22.40686369 136.58172901 23.3125 139.8125 C23.62123047 140.91271484 23.92996094 142.01292969 24.24804688 143.14648438 C26.19388348 150.09004868 28.11495904 157.03968419 30 164 C30.31324219 165.15113281 30.62648438 166.30226563 30.94921875 167.48828125 C31.19285156 168.42027344 31.43648437 169.35226562 31.6875 170.3125 C32.06455078 171.72982422 32.06455078 171.72982422 32.44921875 173.17578125 C33.03541892 176.18161615 33.09476008 178.94511542 33 182 C33.66 182 34.32 182 35 182 C35.176521 182.68626465 35.35304199 183.3725293 35.53491211 184.07958984 C36.33344535 187.17866558 37.13542849 190.27683821 37.9375 193.375 C38.21529297 194.45523438 38.49308594 195.53546875 38.77929688 196.6484375 C39.18051758 198.1953125 39.18051758 198.1953125 39.58984375 199.7734375 C39.83597412 200.72653809 40.08210449 201.67963867 40.33569336 202.66162109 C40.9206543 204.99611383 40.9206543 204.99611383 42 207 C42.039992 208.99960012 42.04346799 211.00047242 42 213 C42.78375 212.896875 43.5675 212.79375 44.375 212.6875 C49.51213508 213.13035647 53.67398249 215.2378845 58 218 C60.51475368 221.77213052 60.44796416 223.52035842 60 228 C56.8698486 236.19801556 49.61924373 240.67233422 42 244.51171875 C39.03197825 245.79863443 36.05236006 246.92984986 33 248 C31.74509766 248.47953125 31.74509766 248.47953125 30.46484375 248.96875 C24.46328814 250.97236053 18.58935823 251.33293606 12.3125 251.4375 C11.51642334 251.45981689 10.72034668 251.48213379 9.90014648 251.50512695 C2.90703404 251.47823875 -2.35069677 249.45060549 -7.5 244.6875 C-9.4323315 241.22540606 -9.35578853 238.91367385 -9 235 C-8.7525 234.29875 -8.505 233.5975 -8.25 232.875 C-7.7458756 230.77229682 -7.7458756 230.77229682 -9.75 228.6875 C-10.4925 227.800625 -11.235 226.91375 -12 226 C-14.85691353 220.17128365 -16.37721092 214.15667663 -17.9375 207.875 C-19.83859599 200.36145543 -21.83234842 192.95884872 -24.3359375 185.62109375 C-25.08457696 182.66616975 -25.11592071 180.03623093 -25 177 C-25.66 177 -26.32 177 -27 177 C-27.12955078 177.98613281 -27.12955078 177.98613281 -27.26171875 178.9921875 C-28.55923678 187.7772178 -30.84675939 196.14576932 -33.32666016 204.65234375 C-33.9974484 206.99110363 -34.63325837 209.33704835 -35.26171875 211.6875 C-35.67412185 213.18759828 -36.08686931 214.68760194 -36.5 216.1875 C-36.76550659 217.21073364 -36.76550659 217.21073364 -37.03637695 218.25463867 C-38.07912906 221.95108755 -39.31437186 224.59933055 -41.6875 227.640625 C-43.55397243 230.08604953 -43.98980796 230.68701958 -44.09375 233.87890625 C-43.8978125 234.76449219 -43.701875 235.65007812 -43.5 236.5625 C-42.91859054 240.7178676 -42.80663111 241.63904474 -44.875 245.5 C-51.83425351 251.99030112 -61.47172163 251.62830726 -70.42578125 251.34765625 C-84.57825126 250.52452948 -99.209235 244.35514494 -109 234 C-111.90820816 230.45562131 -112.6005073 227.42588071 -112.4140625 222.92578125 C-111.68010152 219.51217029 -109.69822216 218.05299512 -107 216 C-102.51196218 213.17058485 -99.27329606 212.68360224 -94 213 C-94.05671875 212.03964844 -94.1134375 211.07929688 -94.171875 210.08984375 C-94.16706246 205.29535142 -92.71911186 201.08573752 -91.25 196.5625 C-89.31187532 190.36617635 -87.45860877 184.18748136 -85.9375 177.875 C-84.0243757 169.97901427 -81.85974323 162.16376074 -79.65869141 154.34375 C-78.51464365 150.27300927 -77.38257173 146.19894539 -76.25 142.125 C-76.03931885 141.36977051 -75.8286377 140.61454102 -75.61157227 139.83642578 C-74.70140364 136.56638119 -73.81317209 133.29543903 -73 130 C-74.748573 130.02356567 -74.748573 130.02356567 -76.5324707 130.04760742 C-80.85417786 130.10187534 -85.17585485 130.13633859 -89.49780273 130.16479492 C-91.36894799 130.17988873 -93.24005783 130.20036589 -95.11108398 130.22631836 C-97.79940526 130.26267593 -100.48725913 130.27972015 -103.17578125 130.29296875 C-104.43217155 130.31619453 -104.43217155 130.31619453 -105.71394348 130.33988953 C-111.60239086 130.34159887 -111.60239086 130.34159887 -113.61613464 128.61152649 C-114.07281021 128.07972275 -114.52948578 127.54791901 -115 127 C-117.71886972 124.12067845 -117.71886972 124.12067845 -121 122 C-121 164.24 -121 206.48 -121 250 C-139.48 250 -157.96 250 -177 250 C-177 202.15 -177 154.3 -177 105 C-164.13 104.67 -151.26 104.34 -138 104 C-138.99 102.35 -139.98 100.7 -141 99 C-142.39393608 94.76113005 -142.54239835 90.41204632 -142 86 C-140.625 83.4375 -140.625 83.4375 -138 82 C-130.82306772 80.77592717 -125.27719266 82.63142032 -119 86 C-118.01 86.495 -118.01 86.495 -117 87 C-116.690625 86.360625 -116.38125 85.72125 -116.0625 85.0625 C-115 83 -115 83 -114 82 C-112.22301674 81.84385638 -110.44016942 81.75395625 -108.6574707 81.69042969 C-107.51570877 81.64658142 -106.37394684 81.60273315 -105.19758606 81.55755615 C-103.95289047 81.51278137 -102.70819489 81.46800659 -101.42578125 81.421875 C-98.81310278 81.31234313 -96.20047368 81.20162849 -93.58789062 81.08984375 C-89.45164448 80.91523303 -85.31541762 80.74788182 -81.17797852 80.60400391 C-77.19686866 80.46476763 -73.21784547 80.28751641 -69.23828125 80.109375 C-68.00370682 80.07269714 -66.76913239 80.03601929 -65.49714661 79.99822998 C-58.3107014 79.76945633 -58.3107014 79.76945633 -52.17260742 76.43066406 C-51.45564697 75.62854492 -50.73868652 74.82642578 -50 74 C-50.680625 73.319375 -51.36125 72.63875 -52.0625 71.9375 C-52.51882813 71.4734375 -52.97515625 71.009375 -53.4453125 70.53125 C-54.49297597 69.49938045 -55.57270886 68.49921271 -56.6796875 67.53125 C-64.75653477 60.2082418 -69.4478784 49.77989531 -70.21484375 38.97265625 C-70.60535241 25.58601941 -66.34794066 16.57624927 -58.75 5.8125 C-42.2624779 -11.04973851 -19.60552934 -12.2077096 0 0 Z " fill="#1D75BB" transform="translate(763,228)"/>
<path d="M0 0 C9.51800525 6.90184467 15.54844828 16.20784485 19.25 27.3125 C20.63211956 42.22795297 18.61158787 54.30048855 9.25 66.3125 C5.87669154 70.02313931 2.13118093 73.15339924 -1.75 76.3125 C0.5091047 78.05027285 2.73364993 79.60063188 5.1875 81.0625 C8.70877467 83.64955894 11.21611478 86.4337189 13.25 90.3125 C13.25 91.3025 13.25 92.2925 13.25 93.3125 C14.07910889 93.09634033 14.90821777 92.88018066 15.76245117 92.6574707 C43.3922184 85.46391053 43.3922184 85.46391053 55.875 82.5 C56.70845947 82.29769775 57.54191895 82.09539551 58.40063477 81.88696289 C62.02769279 81.01718858 65.62428757 80.22231709 69.3125 79.66015625 C73.90587573 78.8917526 73.90587573 78.8917526 78.25 77.3125 C79.69566955 75.07304257 80.20683466 73.21304185 80.734375 70.609375 C81.60971113 66.71015041 83.26893687 64.95480596 86.25 62.3125 C89.84077091 61.49949527 91.95795065 61.66647533 95.265625 63.3203125 C104.53747841 69.51334436 109.27102237 80.49033015 111.83837891 91.04199219 C112.63329391 95.42675468 112.76648146 99.80219156 112.8125 104.25 C112.82716309 105.12567627 112.84182617 106.00135254 112.85693359 106.90356445 C112.76497613 112.71516523 111.75424455 117.56120311 108.25 122.3125 C105.54557371 124.71761242 103.48242101 125.71575393 99.9296875 126.28515625 C93.67684278 127.39527104 87.51891798 128.8376923 81.33740234 130.28930664 C79.38554088 130.74752542 77.43300592 131.20287224 75.48046875 131.65820312 C63.5817318 134.44262837 51.74240228 137.40739778 39.9453125 140.59375 C35.72925184 141.71710827 31.5758874 142.68656774 27.25 143.3125 C27.9679529 150.27241988 29.39796157 156.99176013 30.9375 163.8125 C31.20369141 165.00230469 31.46988281 166.19210937 31.74414062 167.41796875 C33.69460483 176.05508319 35.80481748 184.64396171 37.9921875 193.22363281 C40.23065277 202.06908656 42.22068072 210.96315275 44.15820312 219.87890625 C45.53083753 226.17687589 47.0049727 232.4327302 48.62548828 238.671875 C49.46272732 242.21197563 49.90207031 245.69403118 50.25 249.3125 C51.21099609 249.45945312 51.21099609 249.45945312 52.19140625 249.609375 C58.03018446 250.6187614 62.3518687 251.94503473 67.25 255.3125 C69.74455917 259.05433875 69.62606522 260.87493036 69.25 265.3125 C66.6227834 273.54444535 58.83530697 278.7151072 51.5 282.5625 C37.96620139 288.90592796 19.40718314 294.13932999 4.5625 289.125 C0.50973616 286.90744997 -2.6544295 284.50364099 -4.75 280.3125 C-4.88617178 277.24863484 -4.91213357 274.7989007 -3.9375 271.875 C-3.68360408 268.40508907 -5.32696925 267.2325318 -7.359375 264.5859375 C-13.17864129 255.07241789 -14.23889617 240.8443556 -16.55639648 230.12011719 C-17.91046708 223.88730983 -19.39692736 217.73834924 -21.17871094 211.61303711 C-21.87736834 208.79959749 -21.98391766 206.19748446 -21.75 203.3125 C-22.41 203.3125 -23.07 203.3125 -23.75 203.3125 C-23.78375732 203.87702881 -23.81751465 204.44155762 -23.85229492 205.02319336 C-24.43926462 212.53956208 -26.1581752 219.5953892 -28.0625 226.875 C-28.70309533 229.36295398 -29.34242242 231.85123485 -29.98046875 234.33984375 C-30.28774902 235.53593262 -30.5950293 236.73202148 -30.91162109 237.96435547 C-31.81574384 241.57505416 -32.62911967 245.1976975 -33.41748047 248.83496094 C-34.78212007 255.10618625 -36.48803783 260.71495007 -39.69921875 266.33203125 C-40.77114223 268.35234799 -41.39508948 270.05526907 -41.75 272.3125 C-41.42 272.9725 -41.09 273.6325 -40.75 274.3125 C-40.25689974 277.34154445 -40.26297702 279.43511508 -41.7734375 282.15625 C-45.62319038 287.17581729 -49.66396722 288.866332 -55.75 290.3125 C-58.82826272 290.71550009 -61.83559367 290.7886892 -64.9375 290.75 C-65.75323486 290.74677734 -66.56896973 290.74355469 -67.40942383 290.74023438 C-74.97368862 290.56863865 -81.63166667 288.9136528 -88.75 286.3125 C-88.20214844 286.04179687 -87.65429688 285.77109375 -87.08984375 285.4921875 C-73.37370249 279.09766156 -73.37370249 279.09766156 -64.75 267.3125 C-64.43110963 263.48581554 -64.53886431 260.94590708 -65.75 257.3125 C-68.04534258 256.17704438 -68.04534258 256.17704438 -70.75 255.3125 C-71.554375 254.961875 -72.35875 254.61125 -73.1875 254.25 C-76.02762598 253.21092952 -78.7674938 252.77608074 -81.75 252.3125 C-81.92015625 251.52488281 -82.0903125 250.73726563 -82.265625 249.92578125 C-83.83385399 242.87709246 -85.69411448 236.03799968 -87.98046875 229.1875 C-88.72306379 226.41313477 -88.90213807 224.16640036 -88.75 221.3125 C-89.41 221.3125 -90.07 221.3125 -90.75 221.3125 C-91.09611328 219.67667969 -91.09611328 219.67667969 -91.44921875 218.0078125 C-93.66068225 207.72105179 -96.25232283 197.60368374 -99.13427734 187.48632812 C-100.13431965 183.95564744 -101.10436029 180.41725294 -102.0625 176.875 C-102.38863281 175.68003906 -102.71476563 174.48507812 -103.05078125 173.25390625 C-103.75 170.3125 -103.75 170.3125 -103.75 167.3125 C-94.73534641 167.16141642 -85.72068091 167.35262529 -76.75 168.3125 C-76.42 168.6425 -76.09 168.9725 -75.75 169.3125 C-71.17381788 169.6234985 -66.5854415 169.59101698 -62 169.625 C-60.7109375 169.65400391 -59.421875 169.68300781 -58.09375 169.71289062 C-56.85109375 169.72126953 -55.6084375 169.72964844 -54.328125 169.73828125 C-53.18762695 169.75286377 -52.04712891 169.76744629 -50.87207031 169.7824707 C-47.08125597 169.21183279 -45.47390857 167.9535613 -42.75 165.3125 C-35.2839391 153.96871754 -34.27295034 140.95105762 -36.28515625 127.8203125 C-37.82434964 121.07477643 -39.82082754 116.24167246 -44.75 111.3125 C-48.82352962 110.69754706 -48.82352962 110.69754706 -52.75 111.3125 C-55.79652547 113.8110423 -57.99355048 116.79960097 -59.75 120.3125 C-73.08366487 120.37587757 -86.41634007 120.38299727 -99.75 120.3125 C-101.02875 120.30669922 -102.3075 120.30089844 -103.625 120.29492188 C-106.56431243 120.26867801 -109.49934305 120.20833442 -112.4375 120.125 C-113.24082764 120.11927979 -114.04415527 120.11355957 -114.87182617 120.10766602 C-118.81451006 119.94988873 -120.62342431 119.41156635 -123.76953125 116.94921875 C-125.75 114.3125 -125.75 114.3125 -125.75 111.3125 C-123.66796875 109.19140625 -123.66796875 109.19140625 -120.9375 106.875 C-117.24692582 103.80394406 -117.24692582 103.80394406 -114.35546875 100.0390625 C-112.75 98.3125 -112.75 98.3125 -109.6953125 97.95703125 C-108.43460938 98.01246094 -107.17390625 98.06789063 -105.875 98.125 C-104.42982972 98.16785954 -102.98449296 98.20534418 -101.5390625 98.23828125 C-100.76594727 98.25713379 -99.99283203 98.27598633 -99.19628906 98.29541016 C-94.872583 98.32561569 -90.56548947 98.05563725 -86.25 97.8125 C-77.40411847 97.3388877 -68.60794257 97.19973977 -59.75 97.3125 C-59.63914062 96.24257813 -59.52828125 95.17265625 -59.4140625 94.0703125 C-58.24715221 87.46697309 -54.22941542 83.16506719 -48.875 79.3125 C-47.328125 78.3225 -47.328125 78.3225 -45.75 77.3125 C-46.3790625 76.92320312 -47.008125 76.53390625 -47.65625 76.1328125 C-59.14305913 68.62486798 -65.27976847 59.39054681 -69.359375 46.3671875 C-71.57268818 34.72516016 -69.23249588 23.5242762 -63 13.5625 C-57.81249371 6.36776766 -51.69102531 0.35186547 -43.75 -3.6875 C-43.13253906 -4.0071875 -42.51507812 -4.326875 -41.87890625 -4.65625 C-28.64370684 -10.22896554 -11.85388661 -7.22503445 0 0 Z " fill="#5698D1" transform="translate(886.75,188.6875)"/>
<path d="M0 0 C10.00494914 5.89895086 18.14050142 14.19772111 21.74853516 25.48583984 C24.78681682 38.55322146 22.83771667 51.5469453 15.80859375 62.84375 C9.54800097 71.8475595 0.1364637 78.98151783 -10.765625 81.15625 C-13.11347823 81.39270047 -15.41274921 81.50408635 -17.76953125 81.55859375 C-17.75792969 82.74710937 -17.74632812 83.935625 -17.734375 85.16015625 C-17.65070351 97.98804097 -18.07877676 110.75024187 -18.76953125 123.55859375 C-17.5578125 123.67976562 -16.34609375 123.8009375 -15.09765625 123.92578125 C-13.89725708 124.04590576 -13.89725708 124.04590576 -12.67260742 124.16845703 C-10.88635677 124.34696703 -9.10006022 124.52501819 -7.3137207 124.70263672 C-2.61944113 125.17005208 2.07385597 125.64469803 6.765625 126.13671875 C7.65088867 126.22840332 8.53615234 126.32008789 9.44824219 126.41455078 C11.1379935 126.58975834 12.82746628 126.76768024 14.51660156 126.94873047 C22.73766573 128.37379006 22.73766573 128.37379006 30.12109375 126.09765625 C30.5696875 125.46601563 31.01828125 124.834375 31.48046875 124.18359375 C33.94311653 120.82166447 35.71143074 118.79488855 40.04296875 118.12109375 C44.24431448 118.69774905 46.58981784 120.36958281 49.23046875 123.55859375 C53.04170563 129.91147116 53.83343432 135.69959601 53.66796875 142.99609375 C53.67505859 143.87330078 53.68214844 144.75050781 53.68945312 145.65429688 C53.61133181 153.80896057 52.0519978 161.71731763 47.29296875 168.49609375 C46.80957031 169.20636719 46.32617188 169.91664063 45.828125 170.6484375 C43.50118847 173.43052054 41.58939909 175.39591288 37.88720703 175.83911133 C37.03368652 175.79423584 36.18016602 175.74936035 35.30078125 175.703125 C34.34792236 175.65873291 33.39506348 175.61434082 32.41333008 175.56860352 C31.40423584 175.50342529 30.3951416 175.43824707 29.35546875 175.37109375 C27.79445435 175.28589478 27.79445435 175.28589478 26.2019043 175.19897461 C19.68979593 174.81054727 13.28426041 174.15141497 6.84375 173.09765625 C1.30274669 172.27099846 -4.26748139 171.77589038 -9.84448242 171.25610352 C-14.19058562 170.84443108 -18.47112648 170.34709982 -22.76953125 169.55859375 C-22.27453125 175.00359375 -22.27453125 175.00359375 -21.76953125 180.55859375 C-20.43664063 180.98269531 -19.10375 181.40679687 -17.73046875 181.84375 C-16.85084473 182.1236377 -15.9712207 182.40352539 -15.06494141 182.69189453 C-13.09327876 183.31922675 -11.12159865 183.94650407 -9.14990234 184.57373047 C-4.09041824 186.1833114 0.9688207 187.79365102 6.02734375 189.40625 C6.95450195 189.70136475 7.88166016 189.99647949 8.83691406 190.30053711 C10.68082067 190.88866852 12.52392467 191.47932226 14.36621094 192.07250977 C18.52303328 193.40627561 22.67801547 194.702447 26.88671875 195.86328125 C35.92856614 198.39356898 42.33737145 201.12105175 47.89453125 208.8828125 C51.3022232 215.70816041 49.92269819 224.27846017 47.73950195 231.34033203 C44.25358208 241.19083537 38.22783471 249.09647469 31.92529297 257.31933594 C29.24839516 260.85614185 26.70967339 264.48654848 24.16796875 268.12109375 C23.18258593 269.5210405 22.19690878 270.92078013 21.2109375 272.3203125 C20.21740261 273.73304105 19.2239137 275.14580195 18.23046875 276.55859375 C16.66324878 278.78605725 15.09550046 281.01314164 13.52636719 283.23925781 C12.508488 284.68409328 11.49217009 286.13003011 10.47753906 287.57714844 C8.25649106 290.73587336 6.01757345 293.86800796 3.6640625 296.9296875 C2.92285156 297.90035156 2.18164062 298.87101562 1.41796875 299.87109375 C0.77214844 300.69222656 0.12632812 301.51335937 -0.5390625 302.359375 C-1.96499463 304.43902539 -1.96499463 304.43902539 -1.6328125 306.61328125 C-0.68277895 308.75408082 0.47638505 310.4796689 1.85546875 312.37109375 C3.83222112 315.4536815 4.22820389 316.42496721 4.29296875 320.24609375 C2.83453399 324.7929786 1.38735277 327.28935046 -2.80078125 329.75390625 C-13.96006832 334.93500382 -27.33742861 333.29278203 -38.76953125 329.55859375 C-48.93845316 325.51063448 -59.18549094 320.52113579 -64.84375 310.734375 C-66.46067038 306.93427098 -66.81558447 303.56846441 -65.76953125 299.55859375 C-64.46213114 297.63017858 -63.09556709 296.1223153 -61.375 294.5546875 C-59.76871386 292.55757749 -59.19890467 291.16998919 -58.37890625 288.77734375 C-56.85651695 284.45125804 -54.63024963 281.21944326 -51.83203125 277.62109375 C-50.84743724 276.31755377 -49.86442482 275.01281802 -48.8828125 273.70703125 C-48.37314941 273.0325293 -47.86348633 272.35802734 -47.33837891 271.66308594 C-44.66239128 268.073448 -42.09207491 264.41022917 -39.51953125 260.74609375 C-38.76603394 259.67512451 -38.76603394 259.67512451 -37.99731445 258.58251953 C-36.58645345 256.57566123 -35.17757453 254.56742969 -33.76953125 252.55859375 C-33.37121094 251.99076172 -32.97289062 251.42292969 -32.5625 250.83789062 C-30.62841521 248.0802821 -28.69699256 245.32083584 -26.76953125 242.55859375 C-27.60871094 242.42904297 -27.60871094 242.42904297 -28.46484375 242.296875 C-34.99562597 241.15241316 -40.97818975 239.14839743 -47.1875 236.84765625 C-50.56562089 235.63197479 -53.95145154 234.57296214 -57.39453125 233.55859375 C-62.86488557 231.91614668 -68.06943595 229.87780391 -73.30859375 227.609375 C-75.83114696 226.4926617 -75.83114696 226.4926617 -78.76953125 225.55859375 C-79.37539062 226.53957031 -79.98125 227.52054688 -80.60546875 228.53125 C-85.1721621 235.89786554 -89.81092429 243.19977071 -94.64794922 250.3918457 C-100.63782011 259.31157002 -106.46703083 268.33759747 -112.32421875 277.34472656 C-113.46298274 279.08903599 -114.61402286 280.82533117 -115.76953125 282.55859375 C-115.92510498 281.68460937 -116.08067871 280.810625 -116.2409668 279.91015625 C-119.95997396 258.93959054 -119.95997396 258.93959054 -124.14453125 238.05859375 C-129.05528435 215.01206895 -133.44322013 191.84631791 -137.76953125 168.68359375 C-137.97707031 167.57975342 -138.18460938 166.47591309 -138.3984375 165.33862305 C-138.58277344 164.3412915 -138.76710938 163.34395996 -138.95703125 162.31640625 C-139.11558594 161.46191895 -139.27414062 160.60743164 -139.4375 159.72705078 C-139.76953125 157.55859375 -139.76953125 157.55859375 -139.76953125 154.55859375 C-122.55729761 149.67404096 -105.20568423 145.55900339 -87.76953125 141.55859375 C-83.72604393 140.62872841 -79.68451769 139.69104216 -75.64453125 138.74609375 C-74.36630493 138.45400024 -74.36630493 138.45400024 -73.06225586 138.15600586 C-72.28245361 137.97303955 -71.50265137 137.79007324 -70.69921875 137.6015625 C-69.69737549 137.3698938 -69.69737549 137.3698938 -68.67529297 137.13354492 C-66.69535044 136.59957077 -66.69535044 136.59957077 -64.71533203 135.49731445 C-62.03518078 134.20431802 -59.71231309 134.49598137 -56.76953125 134.55859375 C-55.77953125 134.22859375 -54.78953125 133.89859375 -53.76953125 133.55859375 C-53.44339844 134.18507813 -53.11726563 134.8115625 -52.78125 135.45703125 C-52.34425781 136.27429688 -51.90726563 137.0915625 -51.45703125 137.93359375 C-50.81314453 139.15175781 -50.81314453 139.15175781 -50.15625 140.39453125 C-48.80174401 142.82693418 -48.80174401 142.82693418 -45.76953125 144.55859375 C-43.12320838 144.24641735 -43.12320838 144.24641735 -40.76953125 143.55859375 C-39.81539263 136.87962344 -41.43967888 132.80273864 -44.64453125 126.99609375 C-47.65951847 121.46742515 -49.43743132 116.78594711 -49.95703125 110.49609375 C-51.1392115 96.80698377 -55.40449571 83.60555789 -66.20703125 74.43359375 C-67.05265625 73.81484375 -67.89828125 73.19609375 -68.76953125 72.55859375 C-65.77634563 69.22004056 -62.91196463 67.28460766 -58.76953125 65.55859375 C-57.44953125 65.55859375 -56.12953125 65.55859375 -54.76953125 65.55859375 C-55.51009766 64.11226562 -55.51009766 64.11226562 -56.265625 62.63671875 C-56.91297362 61.36078523 -57.56009724 60.08473754 -58.20703125 58.80859375 C-58.69526367 57.85726562 -58.69526367 57.85726562 -59.19335938 56.88671875 C-64.07512245 47.22384752 -64.43658439 35.45107354 -61.8984375 24.95703125 C-57.01854634 12.57330744 -48.64716069 4.20258412 -36.82421875 -1.58203125 C-24.96152653 -6.54361355 -11.40860702 -5.93762481 0 0 Z " fill="#BBD1ED" transform="translate(1180.76953125,137.44140625)"/>
<path d="M0 0 C24.440625 -0.061875 24.440625 -0.061875 49.375 -0.125 C54.50466309 -0.14320801 59.63432617 -0.16141602 64.91943359 -0.18017578 C71.22192383 -0.18920898 71.22192383 -0.18920898 74.17984009 -0.19088745 C76.22940949 -0.19394258 78.27897547 -0.20094322 80.32852173 -0.21115112 C83.44743011 -0.2258978 86.56612032 -0.2278084 89.68505859 -0.22705078 C91.03634133 -0.23784511 91.03634133 -0.23784511 92.41492271 -0.2488575 C102.81751343 -0.21527638 111.65414879 1.50713529 120 8 C128.36378801 16.8926458 128.4707243 28.00523782 128.2734375 39.50390625 C127.90949461 48.13944219 124.95252567 55.05447283 119.015625 61.33984375 C115.70329349 64.06802377 112.03069671 65.61073492 108 67 C110.23893788 68.72225991 112.43352045 70.25445765 114.875 71.6875 C122.03288148 76.98433229 125.94281315 84.09555991 127.68652344 92.82080078 C129.76106537 107.24242173 129.37005256 122.85669071 121.5 135.5 C116.34197998 141.72383539 107.73552909 143.98430517 100 145 C96.71247518 145.13628481 93.42909036 145.12645908 90.13916016 145.11352539 C89.14721838 145.11364593 88.1552766 145.11376646 87.13327599 145.11389065 C83.9351817 145.11314666 80.73714631 145.10554184 77.5390625 145.09765625 C75.55948922 145.09618524 73.57991555 145.09516551 71.6003418 145.09460449 C64.27522192 145.08937004 56.95011038 145.07540879 49.625 145.0625 C33.24875 145.041875 16.8725 145.02125 0 145 C0 97.15 0 49.3 0 0 Z " fill="#1374BB" transform="translate(446,333)"/>
<path d="M0 0 C18.81 0 37.62 0 57 0 C57.04898438 7.74984375 57.09796875 15.4996875 57.1484375 23.484375 C57.18381435 28.38803406 57.21976896 33.29167517 57.2578125 38.1953125 C57.31816867 45.9820705 57.37636135 53.76880332 57.421875 61.55566406 C57.45869416 67.8321386 57.50504515 74.10847641 57.55806351 80.38483429 C57.57662534 82.78183855 57.59172664 85.17887213 57.60334396 87.5759201 C57.62017558 90.92803512 57.64920367 94.27983574 57.68115234 97.63183594 C57.68331253 98.62733459 57.68547272 99.62283325 57.68769836 100.64849854 C57.69886185 101.56272583 57.71002533 102.47695313 57.7215271 103.41888428 C57.72705786 104.21162624 57.73258862 105.00436821 57.73828697 105.82113266 C58.02980983 108.24817899 58.79118868 109.89179146 60 112 C64.6132527 112.46424996 64.6132527 112.46424996 68.70554829 110.76945782 C70.3447243 108.52877724 70.38283415 107.26342459 70.39872742 104.50117493 C70.41753464 103.11927475 70.41753464 103.11927475 70.4367218 101.7094574 C70.43456917 100.19679039 70.43456917 100.19679039 70.43237305 98.65356445 C70.4425647 97.58998718 70.45275635 96.52640991 70.46325684 95.43060303 C70.49349916 91.90810963 70.50267011 88.38588766 70.51171875 84.86328125 C70.52855707 82.42375273 70.54670614 79.98423293 70.56611633 77.54472351 C70.61371425 71.11842575 70.64346036 64.69216333 70.66955566 58.26574707 C70.70454182 50.55808217 70.7615823 42.85055308 70.81494904 35.14299774 C70.89357759 23.42868205 70.94409712 11.71454555 71 0 C89.81 0 108.62 0 128 0 C128.16065467 29.17667378 128.16065467 29.17667378 128.20101547 43.66428375 C128.22311834 51.47680983 128.25110929 59.28916371 128.30175781 67.1015625 C128.34186071 73.29032281 128.36748798 79.47895275 128.37635398 85.66783941 C128.38152955 88.93923259 128.39569088 92.2101701 128.42292023 95.48146439 C128.67537563 127.08615104 128.67537563 127.08615104 120 139 C117.7734375 140.609375 117.7734375 140.609375 115.375 141.75 C114.59898437 142.13671875 113.82296875 142.5234375 113.0234375 142.921875 C103.08550103 146.46563529 92.97851764 146.32652772 82.56640625 146.3359375 C80.88069042 146.3423786 79.19497568 146.34910789 77.50926208 146.35610962 C73.99011647 146.36802691 70.47106864 146.37179601 66.9519043 146.37060547 C62.46900304 146.37040216 57.98673483 146.39774119 53.5039835 146.43214989 C50.02672001 146.45451031 46.54960697 146.45844029 43.07227898 146.45738602 C41.42065175 146.45972681 39.7690194 146.46846328 38.11746407 146.48405075 C27.51091831 146.57482266 17.28064179 146.32767217 8.5 139.5625 C-0.05211544 130.79658167 -0.45830274 118.23565064 -0.34057617 106.6003418 C-0.34101425 105.43776855 -0.34145233 104.27519531 -0.34190369 103.07739258 C-0.33983542 99.28448924 -0.3165974 95.49204361 -0.29296875 91.69921875 C-0.2873658 89.04978183 -0.2829512 86.40036934 -0.28010559 83.75093079 C-0.2708378 77.52161802 -0.24629669 71.29246609 -0.21605712 65.06322366 C-0.17903121 57.26418535 -0.16276858 49.46512009 -0.14648438 41.66601562 C-0.11739478 27.77721896 -0.05727766 13.88877245 0 0 Z " fill="#1375BB" transform="translate(305,333)"/>
<path d="M0 0 C0.70321884 -0.0049649 1.40643768 -0.00992981 2.13096619 -0.01504517 C4.44856768 -0.02960102 6.7661006 -0.03645989 9.08374023 -0.04199219 C10.2790099 -0.04623325 10.2790099 -0.04623325 11.49842644 -0.05056 C15.72030847 -0.06553073 19.94215656 -0.0747719 24.1640625 -0.07910156 C28.49555148 -0.08456461 32.82672268 -0.10855255 37.15811253 -0.13707352 C40.51359416 -0.15583448 43.86900155 -0.16091273 47.22453117 -0.16243744 C48.81950544 -0.16543727 50.41447926 -0.17337384 52.00940132 -0.18662262 C64.99434521 -0.2867355 77.59421682 0.18399317 87.82983398 9.16113281 C97.45250594 19.63286406 94.82983398 30.43196173 94.82983398 45.16113281 C75.68983398 45.16113281 56.54983398 45.16113281 36.82983398 45.16113281 C36.33483398 41.20113281 36.33483398 41.20113281 35.82983398 37.16113281 C34.80562137 35.05174497 34.80562137 35.05174497 32.82983398 34.16113281 C29.68058851 33.76747713 27.71074283 33.63258751 24.95483398 35.28613281 C23.27515354 38.08560022 23.37241122 39.95917345 23.82983398 43.16113281 C27.26053249 47.80489598 32.48603563 49.44874249 37.64233398 51.59863281 C38.63048096 52.02184814 39.61862793 52.44506348 40.63671875 52.88110352 C46.02829351 55.17997148 51.44327678 57.41733233 56.87721252 59.61375427 C59.65849563 60.73971086 62.43522772 61.87668874 65.21200562 63.01370239 C67.22605959 63.83186603 69.24687524 64.63132519 71.26855469 65.43041992 C80.15447095 69.01095721 87.63982815 72.42315768 92.00317383 81.296875 C94.05566303 86.14903434 94.42786745 90.43475473 94.39624023 95.65722656 C94.40243881 96.53081314 94.40863739 97.40439972 94.4150238 98.30445862 C94.42207897 100.13891495 94.41902387 101.9734359 94.40625 103.80786133 C94.39238229 106.58894572 94.4265199 109.36665945 94.46459961 112.14746094 C94.51263748 123.20808756 94.00271971 132.24989223 85.82983398 140.53613281 C75.73893742 147.9344944 63.31301734 147.74978621 51.39233398 147.65722656 C49.73811784 147.65738204 48.08390135 147.65887901 46.4296875 147.66163635 C42.98380174 147.66301103 39.53833689 147.65062029 36.0925293 147.62768555 C31.71196828 147.59930376 27.33210496 147.60205086 22.95149231 147.61477566 C19.54189262 147.62178525 16.13244954 147.61388387 12.72286987 147.60151863 C11.10920821 147.59705521 9.49552943 147.59662171 7.88186646 147.60058403 C-18.45645338 147.6350007 -18.45645338 147.6350007 -28.17016602 138.16113281 C-33.35440199 132.56761505 -34.47375153 127.73304459 -34.36547852 120.23535156 C-34.36346436 119.57200806 -34.3614502 118.90866455 -34.359375 118.22521973 C-34.34897425 115.76628627 -34.32105194 113.30745201 -34.29516602 110.84863281 C-34.25391602 105.34175781 -34.21266602 99.83488281 -34.17016602 94.16113281 C-15.36016602 94.16113281 3.44983398 94.16113281 22.82983398 94.16113281 C23.32483398 100.59613281 23.32483398 100.59613281 23.82983398 107.16113281 C25.18064712 110.80341708 25.18064712 110.80341708 26.82983398 113.16113281 C30.97077097 113.3708384 30.97077097 113.3708384 34.82983398 112.16113281 C36.00234804 108.64359064 36.12751344 105.38932935 36.20483398 101.72363281 C36.27831055 99.74556641 36.27831055 99.74556641 36.35327148 97.72753906 C36.18462494 94.12994747 36.18462494 94.12994747 33.87548828 92.18188477 C29.96447307 89.58697712 25.93790285 87.95795032 21.57592773 86.26269531 C20.23087914 85.72653091 20.23087914 85.72653091 18.85865784 85.17953491 C15.99804867 84.04022116 13.13314584 82.91228903 10.26733398 81.78613281 C-27.37705927 66.94027572 -27.37705927 66.94027572 -32.40844727 56.02832031 C-34.82931916 50.0940805 -34.46854461 44.06844813 -34.52026367 37.75732422 C-34.53674662 36.28711025 -34.56393505 34.81697385 -34.60229492 33.34716797 C-34.82482104 24.76152981 -34.99686918 17.09890155 -29.17016602 10.16113281 C-21.03161648 2.38567982 -11.01350457 0.05933873 0 0 Z " fill="#1474BB" transform="translate(81.170166015625,331.8388671875)"/>
<path d="M0 0 C37.95 0 75.9 0 115 0 C115 10.89 115 21.78 115 33 C105.43 33 95.86 33 86 33 C86 69.96 86 106.92 86 145 C67.52 145 49.04 145 30 145 C30 108.04 30 71.08 30 33 C20.1 33 10.2 33 0 33 C0 22.11 0 11.22 0 0 Z " fill="#1374BB" transform="translate(182,333)"/>
<path d="M0 0 C7.09019934 4.8250884 11.63439867 11.5275835 13.87890625 19.78125 C15.03640573 31.53121565 13.91486077 43.32608894 6.31640625 52.78125 C-0.72213946 59.78112238 -8.05639999 62.22971395 -17.80859375 62.34375 C-23.98882444 62.24402539 -29.1657018 61.66761357 -34.12109375 57.78125 C-35.58869141 56.66169922 -35.58869141 56.66169922 -37.0859375 55.51953125 C-43.43436613 50.14216647 -46.92250052 42.23680304 -47.7734375 34.0625 C-48.39621862 22.57947125 -46.15413014 13.84670411 -38.68359375 4.84375 C-26.87882242 -4.65765132 -13.93843285 -8.00882329 0 0 Z " fill="#1E75BB" transform="translate(852.12109375,533.21875)"/>
<path d="M0 0 C5.28 0 10.56 0 16 0 C19.24920931 13.92518276 21.76331835 27.87869959 24 42 C26.04149144 38.48488907 26.70148766 35.05237582 27.4375 31.07421875 C27.56310303 30.40840286 27.68870605 29.74258698 27.81811523 29.05659485 C28.21774097 26.93457663 28.60944469 24.81120477 29 22.6875 C29.39148252 20.57470266 29.78476872 18.46228617 30.18188477 16.35054016 C30.54324192 14.42674501 30.89873967 12.50185196 31.25390625 10.5769043 C31.99767982 7.01112336 32.99932126 3.5023756 34 0 C39.28 0 44.56 0 50 0 C50.83801221 4.14393192 51.67479328 8.28807525 52.50854492 12.43286133 C52.7920193 13.84023014 53.07618653 15.24745959 53.36108398 16.65454102 C53.77253412 18.68729204 54.18141727 20.72054582 54.58984375 22.75390625 C54.95903931 24.58417358 54.95903931 24.58417358 55.33569336 26.45141602 C56.33742828 31.8024697 57.13715524 36.98766781 57.0625 42.4375 C57.05347656 43.30246094 57.04445313 44.16742187 57.03515625 45.05859375 C57.02355469 45.69925781 57.01195312 46.33992187 57 47 C57.66 47 58.32 47 59 47 C59.03738281 46.25516357 59.07476563 45.51032715 59.11328125 44.74291992 C59.64774711 36.15806208 60.94810866 27.88377975 62.58398438 19.45727539 C63.00663481 17.27829411 63.41812687 15.09740969 63.828125 12.91601562 C65.84687174 2.30625651 65.84687174 2.30625651 67 0 C71.95 0 76.9 0 82 0 C79.9666284 9.6102367 77.77636351 19.1293986 75.07641602 28.57543945 C72.65745547 37.08176521 70.49208505 45.653369 68.32299805 54.22631836 C68.03593994 55.34917236 67.74888184 56.47202637 67.453125 57.62890625 C67.19692383 58.64025635 66.94072266 59.65160645 66.67675781 60.69360352 C66 63 66 63 65 64 C62.30345146 64.07319621 59.63308542 64.09242537 56.9375 64.0625 C56.17888672 64.05798828 55.42027344 64.05347656 54.63867188 64.04882812 C52.75908129 64.0370068 50.87953101 64.01907078 49 64 C47.99377318 58.73642444 46.99720746 53.47114199 46.00927734 48.20410156 C45.67236386 46.41519757 45.33288548 44.62677456 44.99072266 42.83886719 C44.49735697 40.25840645 44.01345738 37.67631622 43.53125 35.09375 C43.37813354 34.30383667 43.22501709 33.51392334 43.06726074 32.70007324 C42.14849161 27.71643073 41.85865508 23.06822498 42 18 C41.34 18 40.68 18 40 18 C40.0825 19.134375 40.165 20.26875 40.25 21.4375 C40.25 26.81122899 39.00361005 31.79052369 37.71289062 36.96630859 C36.21938931 42.96782572 34.94439742 48.99459259 33.75 55.0625 C33.57500977 55.94977783 33.40001953 56.83705566 33.21972656 57.7512207 C32.81076394 59.83367977 32.40501282 61.91676915 32 64 C26.39 64 20.78 64 15 64 C11.70205247 50.36747036 8.55381041 36.70434685 5.49975586 23.01538086 C3.77451238 15.31338337 1.94622575 7.64925695 0 0 Z " fill="#1F76BB" transform="translate(1042,530)"/>
<path d="M0 0 C-0.43817884 5.4772355 -1.36369939 8.83155784 -5 13 C-10.35050048 16.94551294 -15.65941075 19.5771332 -22.1875 20.87109375 C-24.42200318 21.99941953 -24.42200318 21.99941953 -25.25 25.59765625 C-25.4975 26.72042969 -25.745 27.84320313 -26 29 C-24.9378125 28.95359375 -23.875625 28.9071875 -22.78125 28.859375 C-7.14716057 28.37144503 -7.14716057 28.37144503 -2 33 C1.0487665 36.47032433 2.75802458 39.62880597 3.5625 44.1875 C2.15997289 53.69351711 -0.47140304 61.84397943 -7 69 C-7.825 69.94875 -8.65 70.8975 -9.5 71.875 C-13.99564963 75.69630219 -18.22299192 76.27509562 -24 76 C-24.33 76.66 -24.66 77.32 -25 78 C-26.08474609 77.77763672 -26.08474609 77.77763672 -27.19140625 77.55078125 C-28.94385858 77.20711535 -30.70145826 76.88772221 -32.46484375 76.60546875 C-41.32563973 75.10767227 -46.09489709 71.6262767 -51.38671875 64.41015625 C-56.66725909 56.52131027 -58.22253006 49.54077585 -57 40 C-54.69179778 34.82962703 -50.81584467 31.80458704 -46 29 C-42.71480525 27.90493508 -40.26336585 27.90039392 -36.8125 27.9375 C-35.18248047 27.95103516 -35.18248047 27.95103516 -33.51953125 27.96484375 C-32.68808594 27.97644531 -31.85664062 27.98804688 -31 28 C-30.67 25.03 -30.34 22.06 -30 19 C-28.68 19 -27.36 19 -26 19 C-26 18.34 -26 17.68 -26 17 C-26.845625 16.79375 -27.69125 16.5875 -28.5625 16.375 C-32.70865574 14.71653771 -36.16757224 12.50282486 -39 9 C-39 7.68 -39 6.36 -39 5 C-33.97524332 4.70442608 -31.07647409 4.9717621 -27 8 C-26.34 8.66 -25.68 9.32 -25 10 C-24.13375 8.8553125 -24.13375 8.8553125 -23.25 7.6875 C-16.89568863 0.09762808 -9.39913523 -0.34041134 0 0 Z " fill="#5698D1" transform="translate(968,188)"/>
<path d="M0 0 C1.24265625 -0.03738281 2.4853125 -0.07476563 3.765625 -0.11328125 C12.6462382 -0.19759087 19.14095278 1.19191925 26.21337891 6.71240234 C28.99538033 9.49632836 29.85203078 12.07379841 30.0625 15.875 C29.68676097 22.26256352 26.03612217 26.16288655 21.5 30.375 C23.1396875 31.4578125 23.1396875 31.4578125 24.8125 32.5625 C27.99705745 34.88323013 30.07197387 36.59493083 31.5 40.375 C32.21028841 46.33742105 32.02512677 51.32231829 28.5 56.375 C22.86122259 62.44752952 15.69785123 65.05471287 7.52050781 65.55859375 C0.21277927 65.77321133 -7.2065637 65.95702986 -14.5 65.375 C-15.5 64.375 -15.5 64.375 -15.62025452 61.86302185 C-15.61803391 60.74605423 -15.61581329 59.62908661 -15.61352539 58.47827148 C-15.61344986 57.21703964 -15.61337433 55.9558078 -15.61329651 54.65635681 C-15.6081891 53.26960206 -15.60297309 51.88284771 -15.59765625 50.49609375 C-15.59579201 49.08504791 -15.59436814 47.67400143 -15.59336853 46.26295471 C-15.58954379 42.54259465 -15.5797139 38.8222734 -15.56866455 35.10192871 C-15.55844948 31.30819219 -15.55387071 27.51444942 -15.54882812 23.72070312 C-15.53809158 16.27211769 -15.5210157 8.82356428 -15.5 1.375 C-11.00790343 -0.87104828 -4.93098168 0.05489959 0 0 Z " fill="#1D75BB" transform="translate(585.5,529.625)"/>
<path d="M0 0 C5.61 0 11.22 0 17 0 C20.25694992 3.87057817 21.98040527 6.29830192 23.93359375 10.71728516 C25.17838921 13.38185419 26.58718444 15.91848813 28.03125 18.48046875 C30.16174734 22.26428279 32.28931376 26.04810844 34.36328125 29.86328125 C34.79938721 30.66032471 35.23549316 31.45736816 35.68481445 32.27856445 C37.36108455 35.74717086 38.64732631 39.39287016 40 43 C40 29.14 40 15.28 40 1 C44.29 1 48.58 1 53 1 C53 21.79 53 42.58 53 64 C48.05 64 43.1 64 38 64 C34.98010362 60.35806516 33.72435689 58.20350838 32 54 C30.93605033 52.0420027 29.85075294 50.09547803 28.74609375 48.16015625 C27.64086461 46.12888896 26.53801972 44.09632266 25.4375 42.0625 C24.61088867 40.55139648 24.61088867 40.55139648 23.76757812 39.00976562 C22.95256836 37.50639648 22.95256836 37.50639648 22.12109375 35.97265625 C21.6408374 35.08843994 21.16058105 34.20422363 20.66577148 33.29321289 C18.29293609 28.60214201 16.17537958 23.78583509 14 19 C14 33.85 14 48.7 14 64 C9.38 64 4.76 64 0 64 C0 42.88 0 21.76 0 0 Z " fill="#1E75BB" transform="translate(677,530)"/>
<path d="M0 0 C1.04736328 -0.020625 2.09472656 -0.04125 3.17382812 -0.0625 C11.2494228 -0.10265212 19.36711012 0.53736229 25.9375 5.6875 C29.7054163 9.54961421 30.72737227 12.23959929 30.75 17.625 C30.65179119 22.23467598 30.16169883 25.39854649 27.4375 29.25 C23.12171053 33.25 23.12171053 33.25 20.4375 33.25 C20.88480469 33.69085937 21.33210937 34.13171875 21.79296875 34.5859375 C28.79788704 42.38245637 32.4375 53.77958815 32.4375 64.25 C27.8175 64.25 23.1975 64.25 18.4375 64.25 C16.04341298 58.58399406 14.0249455 53.33309507 13.02734375 47.2578125 C12.41188008 44.72947584 12.41188008 44.72947584 9.4375 41.25 C6.1375 40.59 2.8375 39.93 -0.5625 39.25 C-0.5625 47.5 -0.5625 55.75 -0.5625 64.25 C-5.1825 64.25 -9.8025 64.25 -14.5625 64.25 C-14.5625 43.46 -14.5625 22.67 -14.5625 1.25 C-9.80549992 -0.33566669 -4.9823584 0.02391054 0 0 Z " fill="#1C74BA" transform="translate(990.5625,529.75)"/>
<path d="M0 0 C4.95 0 9.9 0 15 0 C15 8.25 15 16.5 15 25 C22.92 25 30.84 25 39 25 C39 17.08 39 9.16 39 1 C43.62 1 48.24 1 53 1 C53 21.79 53 42.58 53 64 C48.38 64 43.76 64 39 64 C39 55.42 39 46.84 39 38 C31.08 38 23.16 38 15 38 C15 46.58 15 55.16 15 64 C10.05 64 5.1 64 0 64 C0 42.88 0 21.76 0 0 Z " fill="#2076BC" transform="translate(155,530)"/>
<path d="M0 0 C1.38735352 -0.01836914 1.38735352 -0.01836914 2.80273438 -0.03710938 C8.16919376 -0.04855172 12.61400199 0.41702414 17.6875 2.1875 C17.37700274 3.62543392 17.0640224 5.0628318 16.75 6.5 C16.57597656 7.30050781 16.40195313 8.10101562 16.22265625 8.92578125 C15.6875 11.1875 15.6875 11.1875 14.6875 14.1875 C13.82125 14.0225 12.955 13.8575 12.0625 13.6875 C3.56936704 12.50886114 -5.79714483 11.55036596 -13.3125 16.1875 C-17.43775028 19.76271691 -20.01684349 22.61941383 -20.6484375 28.10546875 C-20.73296556 35.18046755 -20.49172288 41.25197794 -16.3125 47.1875 C-11.14887632 51.49051973 -7.12368559 52.32810935 -0.5625 52.25 C1.17 52.229375 2.9025 52.20875 4.6875 52.1875 C5.0175 47.8975 5.3475 43.6075 5.6875 39.1875 C2.3875 39.1875 -0.9125 39.1875 -4.3125 39.1875 C-4.3125 35.5575 -4.3125 31.9275 -4.3125 28.1875 C3.6075 28.1875 11.5275 28.1875 19.6875 28.1875 C19.6875 39.4075 19.6875 50.6275 19.6875 62.1875 C-11.22453891 68.36990778 -11.22453891 68.36990778 -24.5859375 59.71484375 C-30.75146125 54.86722935 -34.88827472 47.93696111 -36.3125 40.1875 C-37.25488775 29.59458449 -36.74520753 21.15223071 -30.3125 12.1875 C-21.8254419 2.56534153 -12.33353467 0.00848832 0 0 Z " fill="#1E75BB" transform="translate(1215.3125,529.8125)"/>
<path d="M0 0 C4.62 0 9.24 0 14 0 C14 7.92 14 15.84 14 24 C21.92 24 29.84 24 38 24 C38 16.08 38 8.16 38 0 C42.62 0 47.24 0 52 0 C52 20.79 52 41.58 52 63 C47.38 63 42.76 63 38 63 C38 54.09 38 45.18 38 36 C30.08 36 22.16 36 14 36 C14 44.91 14 53.82 14 63 C9.38 63 4.76 63 0 63 C0 42.21 0 21.42 0 0 Z " fill="#1A73BA" transform="translate(743,531)"/>
<path d="M0 0 C4.95 0 9.9 0 15 0 C15.01458252 1.30146973 15.02916504 2.60293945 15.04418945 3.94384766 C15.10228934 8.78591992 15.17952191 13.62753285 15.26245117 18.46923828 C15.29564549 20.56226124 15.32369445 22.65537253 15.34643555 24.74853516 C15.38008231 27.76242612 15.43240393 30.77551163 15.48828125 33.7890625 C15.49467117 34.72054108 15.5010611 35.65201965 15.50764465 36.61172485 C15.6469877 42.80981438 16.43034174 47.43034174 21 52 C24.3839801 52.5689878 27.61286032 52.53256913 31 52 C34.34625024 49.47323961 35.67977847 47.96066458 37 44 C37.11349848 42.54293083 37.17601475 41.08155041 37.20532227 39.62036133 C37.22526749 38.73967484 37.24521271 37.85898834 37.26576233 36.95161438 C37.29083107 35.53117073 37.29083107 35.53117073 37.31640625 34.08203125 C37.33718735 33.10965012 37.35796844 32.13726898 37.37937927 31.13542175 C37.44478748 28.02785335 37.50371929 24.92020015 37.5625 21.8125 C37.60569351 19.70637142 37.64930807 17.60025144 37.69335938 15.49414062 C37.80045999 10.32951409 37.90175219 5.16480222 38 0 C42.95 0 47.9 0 53 0 C53.0497499 5.53180661 53.08588418 11.06348052 53.10986328 16.59545898 C53.11986873 18.47406282 53.13347733 20.35265129 53.15087891 22.23120117 C53.1753688 24.94453748 53.1865379 27.65766638 53.1953125 30.37109375 C53.20563507 31.19959335 53.21595764 32.02809296 53.22659302 32.88169861 C53.2284751 42.85077128 51.41049402 52.48926748 44.25 59.8125 C35.65501315 65.5975873 27.07205764 66.09952431 17 65 C13.71811349 63.86227934 11.49749613 62.38946195 9 60 C8.0925 59.13375 7.185 58.2675 6.25 57.375 C-1.76311544 46.48973391 -0.47207903 33.62499327 -0.25 20.8125 C-0.22990364 18.79103333 -0.21165842 16.76954736 -0.1953125 14.74804688 C-0.15156707 9.8315489 -0.08271258 4.91599049 0 0 Z " fill="#2277BC" transform="translate(220,530)"/>
<path d="M0 0 C4.95 0 9.9 0 15 0 C15.01458252 1.30146973 15.02916504 2.60293945 15.04418945 3.94384766 C15.10228934 8.78591992 15.17952191 13.62753285 15.26245117 18.46923828 C15.29564549 20.56226124 15.32369445 22.65537253 15.34643555 24.74853516 C15.38008231 27.76242612 15.43240393 30.77551163 15.48828125 33.7890625 C15.49467117 34.72054108 15.5010611 35.65201965 15.50764465 36.61172485 C15.6469877 42.80981438 16.43034174 47.43034174 21 52 C24.3839801 52.5689878 27.61286032 52.53256913 31 52 C34.34625024 49.47323961 35.67977847 47.96066458 37 44 C37.11322825 42.5735686 37.17595476 41.1427751 37.20532227 39.7121582 C37.22526749 38.85149246 37.24521271 37.99082672 37.26576233 37.1040802 C37.28247482 36.17899155 37.29918732 35.25390289 37.31640625 34.30078125 C37.33718735 33.35059616 37.35796844 32.40041107 37.37937927 31.4214325 C37.44478052 28.38519544 37.50371604 25.34887169 37.5625 22.3125 C37.60569417 20.25454831 37.64930876 18.19660541 37.69335938 16.13867188 C37.80045231 11.09253684 37.90174646 6.04631457 38 1 C42.62 1 47.24 1 52 1 C52.09938176 7.24385004 52.17171075 13.48723272 52.21972656 19.73168945 C52.23975746 21.85286487 52.26699025 23.97398565 52.30175781 26.0949707 C52.35065214 29.15589941 52.37305452 32.21609376 52.390625 35.27734375 C52.41127014 36.21521225 52.43191528 37.15308075 52.45318604 38.11936951 C52.45585745 46.07951144 50.1343595 51.6729102 45.875 58.3125 C39.98784788 63.81570742 33.82828821 65.24143823 25.875 65.4375 C17.86982991 65.15129132 12.7829346 64.22137181 7.1875 58.3125 C0.54955233 50.0717677 -0.16032834 40.9123246 -0.09765625 30.6640625 C-0.0962413 29.78471039 -0.09482635 28.90535828 -0.09336853 27.99935913 C-0.08779877 25.20787058 -0.0752519 22.41646406 -0.0625 19.625 C-0.05748109 17.72526158 -0.05291887 15.8255219 -0.04882812 13.92578125 C-0.03783925 9.28382286 -0.02059557 4.64192531 0 0 Z " fill="#1E75BB" transform="translate(505,530)"/>
<path d="M0 0 C13.2 0 26.4 0 40 0 C40 4.29 40 8.58 40 13 C31.75 13 23.5 13 15 13 C15 16.96 15 20.92 15 25 C22.59 25 30.18 25 38 25 C38 28.96 38 32.92 38 37 C30.08 37 22.16 37 14 37 C14 41.95 14 46.9 14 52 C22.91 52 31.82 52 41 52 C41 55.96 41 59.92 41 64 C27.47 64 13.94 64 0 64 C0 42.88 0 21.76 0 0 Z " fill="#2378BC" transform="translate(925,530)"/>
<path d="M0 0 C13.2 0 26.4 0 40 0 C40 3.96 40 7.92 40 12 C31.75 12 23.5 12 15 12 C15 16.29 15 20.58 15 25 C22.59 25 30.18 25 38 25 C38 28.96 38 32.92 38 37 C30.41 37 22.82 37 15 37 C15 41.95 15 46.9 15 52 C23.58 52 32.16 52 41 52 C41 55.96 41 59.92 41 64 C27.47 64 13.94 64 0 64 C0 42.88 0 21.76 0 0 Z " fill="#2277BC" transform="translate(1131,530)"/>
<path d="M0 0 C13.2 0 26.4 0 40 0 C40 3.96 40 7.92 40 12 C31.75 12 23.5 12 15 12 C15 16.29 15 20.58 15 25 C22.59 25 30.18 25 38 25 C38 28.96 38 32.92 38 37 C30.41 37 22.82 37 15 37 C15 41.95 15 46.9 15 52 C23.58 52 32.16 52 41 52 C41 55.96 41 59.92 41 64 C27.47 64 13.94 64 0 64 C0 42.88 0 21.76 0 0 Z " fill="#2176BB" transform="translate(333,530)"/>
<path d="M0 0 C12.87 0 25.74 0 39 0 C39 3.63 39 7.26 39 11 C30.75 11 22.5 11 14 11 C14 15.29 14 19.58 14 24 C21.92 24 29.84 24 38 24 C38 27.96 38 31.92 38 36 C30.08 36 22.16 36 14 36 C14 40.95 14 45.9 14 51 C22.91 51 31.82 51 41 51 C41 54.96 41 58.92 41 63 C27.47 63 13.94 63 0 63 C0 42.21 0 21.42 0 0 Z " fill="#1F76BC" transform="translate(627,531)"/>
<path d="M0 0 C1.29357422 -0.00386719 1.29357422 -0.00386719 2.61328125 -0.0078125 C3.50660156 -0.00007812 4.39992188 0.00765625 5.3203125 0.015625 C6.20589844 0.00789062 7.09148437 0.00015625 8.00390625 -0.0078125 C12.88292622 0.00673003 16.86876461 0.36250608 21.4453125 2.265625 C20.7853125 6.225625 20.1253125 10.185625 19.4453125 14.265625 C17.74375 13.770625 17.74375 13.770625 16.0078125 13.265625 C10.28463735 11.85512616 4.95209713 11.29360647 -0.6171875 13.453125 C-2.76950877 15.12598788 -2.76950877 15.12598788 -3.1171875 17.765625 C-2.38152124 21.03525282 -1.3453616 21.48504338 1.4453125 23.265625 C3.32500157 24.03545424 5.22293639 24.76157509 7.1328125 25.453125 C13.79647786 28.14469118 19.76711032 32.01301642 23.66796875 38.20703125 C25.53213704 43.14379854 24.99263456 48.5914634 23.3828125 53.515625 C19.33927395 59.25484101 14.23318029 63.22474611 7.4453125 65.265625 C4.47333096 65.66779365 1.56571768 65.69371933 -1.4296875 65.640625 C-2.22036621 65.63482422 -3.01104492 65.62902344 -3.82568359 65.62304688 C-9.57131506 65.49518201 -14.26345518 64.61728381 -19.5546875 62.265625 C-19.24574818 60.6399443 -18.932418 59.01509752 -18.6171875 57.390625 C-18.44316406 56.48570312 -18.26914062 55.58078125 -18.08984375 54.6484375 C-17.5546875 52.265625 -17.5546875 52.265625 -16.5546875 50.265625 C-15.5234375 50.595625 -14.4921875 50.925625 -13.4296875 51.265625 C-7.44740841 52.75850973 1.88081504 54.392708 7.36328125 51.12109375 C8.90618236 48.4753247 8.64531704 46.26569313 8.4453125 43.265625 C6.85203125 42.50378906 6.85203125 42.50378906 5.2265625 41.7265625 C-13.50848703 32.65464453 -13.50848703 32.65464453 -17.5546875 25.953125 C-19.13726667 20.11736431 -19.68361509 15.52348017 -16.9296875 10.015625 C-12.27847827 4.63001431 -7.42970027 0.021522 0 0 Z " fill="#1D75BA" transform="translate(419.5546875,529.734375)"/>
<path d="M0 0 C1.33514648 -0.01836914 1.33514648 -0.01836914 2.69726562 -0.03710938 C7.60326934 -0.04801969 11.58501812 0.26282576 16.1875 2.1875 C15.87856068 3.8131807 15.5652305 5.43802748 15.25 7.0625 C15.07597656 7.96742188 14.90195313 8.87234375 14.72265625 9.8046875 C14.1875 12.1875 14.1875 12.1875 13.1875 14.1875 C12.64222656 14.043125 12.09695312 13.89875 11.53515625 13.75 C5.32535433 12.22143337 -1.35242157 10.58404902 -7.375 13.375 C-8.97734509 15.14261723 -8.97734509 15.14261723 -9.4375 17.625 C-9.02018834 20.40858696 -9.02018834 20.40858696 -6.4375 22.25 C-3.71643361 23.86081996 -0.89364326 24.95394628 2.0625 26.0625 C9.02902425 28.7419324 14.83969088 32.32148429 18.1875 39.1875 C18.9929557 44.51366651 19.1194464 50.23287452 16.625 55.125 C11.94250816 61.00813078 6.78440703 64.30669919 -0.8125 65.1875 C-9.35588206 65.75910023 -16.79503798 65.29103369 -24.8125 62.1875 C-24.67019192 60.77047487 -24.52349254 59.3538904 -24.375 57.9375 C-24.29378906 57.14859375 -24.21257813 56.3596875 -24.12890625 55.546875 C-23.83615007 53.36385361 -23.39185581 51.3101818 -22.8125 49.1875 C-22.30203125 49.4040625 -21.7915625 49.620625 -21.265625 49.84375 C-14.88348328 52.28797449 -8.61802731 53.15700249 -1.8125 52.1875 C0.99702064 50.93099185 0.99702064 50.93099185 3.1875 49.1875 C4.02106413 46.73162036 4.02106413 46.73162036 3.1875 44.1875 C-0.17631211 41.07129345 -3.33944644 39.41959663 -7.625 37.875 C-13.87903894 35.37646903 -19.29899249 32.11952165 -22.99609375 26.3359375 C-24.89517065 21.33836672 -24.94973174 14.93540331 -22.90234375 9.98828125 C-17.0891485 1.37129408 -9.66689295 0.00690986 0 0 Z " fill="#1D74BA" transform="translate(70.8125,529.8125)"/>
<path d="M0 0 C0.97517578 0.00128906 1.95035156 0.00257813 2.95507812 0.00390625 C10.75000743 0.10020599 10.75000743 0.10020599 14.6875 2.375 C14.54642253 3.83380109 14.39947585 5.29203551 14.25 6.75 C14.16878906 7.56210937 14.08757812 8.37421875 14.00390625 9.2109375 C13.6875 11.375 13.6875 11.375 12.6875 13.375 C11.553125 13.21 10.41875 13.045 9.25 12.875 C1.68129681 11.96568584 -4.42362062 11.53312496 -11.3125 15.375 C-15.7108018 19.18686156 -18.10008217 21.95564364 -18.61328125 27.80078125 C-18.99343157 38.67416293 -18.99343157 38.67416293 -13.8828125 47.859375 C-9.13380211 52.06496629 -5.60276241 52.51303438 0.5625 52.5 C2.38394531 52.50386719 2.38394531 52.50386719 4.2421875 52.5078125 C7.97321984 52.45496138 7.97321984 52.45496138 12.6875 51.375 C13.3475 55.335 14.0075 59.295 14.6875 63.375 C5.513756 67.0444976 -7.82163834 67.23497178 -17.1875 63.75 C-19.3828125 62.62109375 -19.3828125 62.62109375 -21.3125 61.375 C-21.94929688 60.97410156 -22.58609375 60.57320312 -23.2421875 60.16015625 C-29.3125236 55.6660233 -34.03589834 47.83820971 -35.3125 40.375 C-36.19805703 28.84824134 -34.6254279 19.56839507 -27.3125 10.375 C-19.44316353 2.17605782 -11.1693424 -0.28620028 0 0 Z " fill="#1F76BB" transform="translate(131.3125,529.625)"/>
<path d="M0 0 C12.54 0 25.08 0 38 0 C38 3.63 38 7.26 38 11 C30.08 11 22.16 11 14 11 C14 15.95 14 20.9 14 26 C21.59 26 29.18 26 37 26 C37 29.96 37 33.92 37 38 C29.41 38 21.82 38 14 38 C14 46.25 14 54.5 14 63 C9.38 63 4.76 63 0 63 C0 42.21 0 21.42 0 0 Z " fill="#1C74BA" transform="translate(876,531)"/>
<path d="M0 0 C16.17 0 32.34 0 49 0 C49 4.29 49 8.58 49 13 C43.39 13 37.78 13 32 13 C32 29.83 32 46.66 32 64 C27.05 64 22.1 64 17 64 C17 47.17 17 30.34 17 13 C11.39 13 5.78 13 0 13 C0 8.71 0 4.42 0 0 Z " fill="#2478BC" transform="translate(449,530)"/>
<path d="M0 0 C-0.15650024 0.81223022 -0.15650024 0.81223022 -0.31616211 1.64086914 C-0.65126251 3.38058838 -0.98620219 5.12033857 -1.32104492 6.86010742 C-1.7414274 9.04393195 -2.16217856 11.22768554 -2.58325195 13.41137695 C-3.95577571 20.53882758 -5.31791713 27.66814425 -6.66929626 34.79963684 C-7.4716027 39.03185924 -8.27640721 43.26360521 -9.08132935 47.49533081 C-9.48439718 49.61793558 -9.88631979 51.74075816 -10.28707886 53.86380005 C-10.85901095 56.89284077 -11.4349776 59.92109054 -12.01171875 62.94921875 C-12.18241882 63.85878326 -12.3531189 64.76834778 -12.5289917 65.70547485 C-13.45809253 70.56092499 -14.5578516 75.27070209 -16 80 C-18.08831087 76.36287793 -18.98988861 72.5072229 -19.953125 68.46484375 C-20.13410736 67.72162369 -20.31508972 66.97840363 -20.5015564 66.21266174 C-21.08986073 63.78889628 -21.67050534 61.36338577 -22.25 58.9375 C-22.65151791 57.26692419 -23.05304794 55.59635129 -23.45458984 53.92578125 C-24.457708 49.74078624 -25.45171009 45.55369186 -26.44104004 41.36541748 C-26.96649027 39.14180711 -27.49433524 36.91877689 -28.02246094 34.69580078 C-28.9058857 30.9674884 -29.76814612 27.23451572 -30.625 23.5 C-30.88442383 22.39906006 -31.14384766 21.29812012 -31.41113281 20.16381836 C-31.63897461 19.1506958 -31.86681641 18.13757324 -32.1015625 17.09375 C-32.30088379 16.22427734 -32.50020508 15.35480469 -32.70556641 14.45898438 C-33.03160449 11.7360527 -32.67403499 9.64406351 -32 7 C-30.83984375 6.74605469 -29.6796875 6.49210937 -28.484375 6.23046875 C-20.35285826 4.44167454 -12.24488355 2.61949737 -4.1875 0.515625 C-2 0 -2 0 0 0 Z " fill="#FCFDFD" transform="translate(946,324)"/>
<path d="M0 0 C4.62 0 9.24 0 14 0 C14 16.83 14 33.66 14 51 C22.58 51 31.16 51 40 51 C40 54.96 40 58.92 40 63 C26.8 63 13.6 63 0 63 C0 42.21 0 21.42 0 0 Z " fill="#1E76BC" transform="translate(285,531)"/>
<path d="M0 0 C4.4265919 3.14969039 6.14002828 6.10351795 7.25 11.3125 C8.9787808 29.05548063 8.9787808 29.05548063 3.734375 35.90234375 C0.18876968 39.27066881 -2.06009909 40.76886702 -7.0625 40.875 C-12.10417695 40.72691336 -14.88211198 39.68955759 -18.37890625 36.05859375 C-23.79654708 29.15920501 -23.4761272 21.8101508 -22.75 13.3125 C-21.65590619 8.22258533 -19.4466736 4.0091736 -15.75 0.3125 C-10.61703801 -2.60080275 -5.22454035 -2.72249255 0 0 Z " fill="#FCFCFD" transform="translate(842.75,542.6875)"/>
<path d="M0 0 C-2.47203296 8.13557116 -5.82639164 15.83184758 -9.25048828 23.60107422 C-10.24293529 25.85892753 -11.22127602 28.1225527 -12.19921875 30.38671875 C-19.56538725 47.25691937 -19.56538725 47.25691937 -25 54 C-25.66 54 -26.32 54 -27 54 C-27.82025325 49.53876371 -28.63799884 45.07707694 -29.45361328 40.61499023 C-29.7303002 39.10315113 -30.00762357 37.59142833 -30.28564453 36.07983398 C-32.00323442 26.73850123 -33.62228667 17.39863301 -35 8 C-31.50039331 7.04022655 -28.00024412 6.08244591 -24.5 5.125 C-23.51773437 4.85558594 -22.53546875 4.58617187 -21.5234375 4.30859375 C-4.68827543 -0.29301721 -4.68827543 -0.29301721 0 0 Z " fill="#FDFDFD" transform="translate(1076,284)"/>
<path d="M0 0 C0.33 0 0.66 0 1 0 C1.19110352 1.07894531 1.38220703 2.15789062 1.57910156 3.26953125 C2.29724765 7.30488245 3.03174323 11.33711912 3.77099609 15.36865234 C4.08757967 17.10776435 4.39983351 18.84767071 4.70751953 20.58837891 C5.15277467 23.10284562 5.61397131 25.61396162 6.078125 28.125 C6.21059631 28.89303955 6.34306763 29.6610791 6.47955322 30.45239258 C7.58324713 36.29403793 9.28274465 42.34886209 13.64801025 46.60791016 C14.09416687 47.0672998 14.54032349 47.52668945 15 48 C14.69921875 49.90625 14.69921875 49.90625 14 52 C13.88666942 53.49701785 13.82535314 54.9987535 13.8125 56.5 C13.79123047 57.62921875 13.79123047 57.62921875 13.76953125 58.78125 C14.02582722 61.24864173 14.77154847 62.86356256 16 65 C3.15119919 60.35017173 -7.53788459 48.3491942 -13.3125 36.25 C-14.63675433 29.98988863 -15.44519566 23.45683262 -12.125 17.8125 C-10 16 -10 16 -8 15 C-7.01407957 13.35614699 -7.01407957 13.35614699 -6.125 11.375 C-4.24990763 7.46973243 -2.18256788 3.74154493 0 0 Z " fill="#BAD1EC" transform="translate(1002,410)"/>
<path d="M0 0 C8.71700174 -0.14368684 17.31320899 0.28038418 26 1 C25.30226605 7.94371381 23.80024859 14.59153133 22.1875 21.375 C21.64654177 23.68215256 21.10618059 25.98944518 20.56640625 28.296875 C20.30102051 29.42802734 20.03563477 30.55917969 19.76220703 31.72460938 C18.68554261 36.35130055 17.64907043 40.98642321 16.625 45.625 C16.37399536 46.76074463 16.37399536 46.76074463 16.11791992 47.91943359 C15.74433001 49.61274643 15.37199344 51.30633573 15 53 C14.34 52.67 13.68 52.34 13 52 C12.30116797 49.68378378 11.71938324 47.41802249 11.1875 45.0625 C10.83939477 43.59584097 10.48904915 42.12971227 10.13671875 40.6640625 C9.95286621 39.89739258 9.76901367 39.13072266 9.57958984 38.34082031 C8.63289174 34.51734036 7.5681687 30.72851591 6.5 26.9375 C6.07923402 25.43494988 5.65866008 23.93234598 5.23828125 22.4296875 C5.03283691 21.69588867 4.82739258 20.96208984 4.61572266 20.20605469 C3.62647923 16.66172336 2.65029218 13.11410431 1.6875 9.5625 C1.36136719 8.36753906 1.03523437 7.17257812 0.69921875 5.94140625 C0 3 0 3 0 0 Z " fill="#FAFBFC" transform="translate(783,356)"/>
<path d="M0 0 C9.24 0 18.48 0 28 0 C28 7.92 28 15.84 28 24 C18.76 24 9.52 24 0 24 C0 16.08 0 8.16 0 0 Z " fill="#1C77BB" transform="translate(336,302)"/>
<path d="M0 0 C8.91 0 17.82 0 27 0 C27 7.92 27 15.84 27 24 C18.09 24 9.18 24 0 24 C0 16.08 0 8.16 0 0 Z " fill="#1474BA" transform="translate(374,302)"/>
<path d="M0 0 C18.81 0 37.62 0 57 0 C57 39.27 57 78.54 57 119 C56.34 119 55.68 119 55 119 C55 80.39 55 41.78 55 2 C37.51 2 20.02 2 2 2 C2.02320313 9.53328125 2.04640625 17.0665625 2.0703125 24.828125 C2.0805292 29.59505552 2.09015698 34.36197258 2.09765625 39.12890625 C2.10962084 46.6984334 2.12378879 54.26791225 2.15087891 61.83740234 C2.17257852 67.93873372 2.18456258 74.04001333 2.18975449 80.14138031 C2.19345541 82.47143113 2.20068221 84.80147905 2.21146011 87.13150787 C2.2259366 90.39014351 2.22797954 93.64856404 2.22705078 96.90722656 C2.23424133 97.874673 2.24143188 98.84211945 2.24884033 99.83888245 C2.246091 100.72786728 2.24334167 101.61685211 2.24050903 102.53277588 C2.24235262 103.30339481 2.24419621 104.07401375 2.24609566 104.86798477 C1.96799634 107.27725919 1.19755262 108.90780374 0 111 C-1.18354824 108.63290352 -1.1095836 107.25974806 -1.08229065 104.62142944 C-1.07525116 103.70153732 -1.06821167 102.7816452 -1.06095886 101.83387756 C-1.04801285 100.82183762 -1.03506683 99.80979767 -1.02172852 98.76708984 C-1.01212097 97.7036586 -1.00251343 96.64022736 -0.99261475 95.54457092 C-0.95953675 92.01662761 -0.91923794 88.48880475 -0.87890625 84.9609375 C-0.85461374 82.51999338 -0.83076975 80.07904476 -0.80735779 77.63809204 C-0.74443044 71.20347986 -0.67538834 64.76894707 -0.60510254 58.33441162 C-0.52209034 50.61939126 -0.44662003 42.90429394 -0.36989594 35.18920898 C-0.25239702 23.45940324 -0.12527652 11.72973689 0 0 Z " fill="#307DBB" transform="translate(376,333)"/>
<path d="M0 0 C13.2 0 26.4 0 40 0 C40 0.33 40 0.66 40 1 C27.46 1 14.92 1 2 1 C2 47.53 2 94.06 2 142 C19.49 142 36.98 142 55 142 C55 100.42 55 58.84 55 16 C55.33 16 55.66 16 56 16 C56 58.24 56 100.48 56 144 C37.52 144 19.04 144 0 144 C0 96.48 0 48.96 0 0 Z " fill="#146CB5" transform="translate(586,334)"/>
<path d="M0 0 C37.95 0 75.9 0 115 0 C115 10.89 115 21.78 115 33 C105.43 33 95.86 33 86 33 C86 32.67 86 32.34 86 32 C94.91 32 103.82 32 113 32 C113 22.1 113 12.2 113 2 C76.37 2 39.74 2 2 2 C2 11.9 2 21.8 2 32 C11.24 32 20.48 32 30 32 C30 32.33 30 32.66 30 33 C20.1 33 10.2 33 0 33 C0 22.11 0 11.22 0 0 Z " fill="#297ABC" transform="translate(182,333)"/>
<path d="M0 0 C9 0 9 0 13 2 C14.76078179 5.52156358 14.184646 9.55891951 14.1875 13.4375 C14.19974609 14.30955078 14.21199219 15.18160156 14.22460938 16.08007812 C14.22750977 17.33788086 14.22750977 17.33788086 14.23046875 18.62109375 C14.23457764 19.3886499 14.23868652 20.15620605 14.24291992 20.94702148 C14 23 14 23 12 26 C9 27 9 27 0 27 C0 18.09 0 9.18 0 0 Z " fill="#F7F9FA" transform="translate(502,418)"/>
<path d="M0 0 C12.87 0 25.74 0 39 0 C39 3.63 39 7.26 39 11 C30.75 11 22.5 11 14 11 C14 10.67 14 10.34 14 10 C21.92 10 29.84 10 38 10 C38 7.03 38 4.06 38 1 C26.12 1 14.24 1 2 1 C2 20.8 2 40.6 2 61 C14.21 61 26.42 61 39 61 C39 58.36 39 55.72 39 53 C30.75 53 22.5 53 14 53 C14 52.67 14 52.34 14 52 C22.58 52 31.16 52 40 52 C40 55.63 40 59.26 40 63 C26.8 63 13.6 63 0 63 C0 42.21 0 21.42 0 0 Z " fill="#106CB6" transform="translate(627,531)"/>
<path d="M0 0 C4.62 0 9.24 0 14 0 C14 16.83 14 33.66 14 51 C13.67 51 13.34 51 13 51 C13 34.5 13 18 13 1 C9.37 1 5.74 1 2 1 C2 20.8 2 40.6 2 61 C13.88 61 25.76 61 38 61 C38 58.36 38 55.72 38 53 C30.08 53 22.16 53 14 53 C14 52.67 14 52.34 14 52 C22.25 52 30.5 52 39 52 C39 55.63 39 59.26 39 63 C26.13 63 13.26 63 0 63 C0 42.21 0 21.42 0 0 Z " fill="#116CB5" transform="translate(285,531)"/>
<path d="M0 0 C11.88163265 -0.57959184 11.88163265 -0.57959184 17 4 C18.44430855 6.88861709 18.37688506 8.79647701 18 12 C15.827365 14.57285724 14.02006162 16.48996919 11 18 C7.32984725 18.1377685 3.67388652 18.04271961 0 18 C0 12.06 0 6.12 0 0 Z " fill="#F7F8FA" transform="translate(584,566)"/>
<path d="M0 0 C9 0 9 0 13 2 C14.40603618 4.81207235 14.24557505 7.24009466 14.3125 10.375 C14.34988281 11.51710938 14.38726563 12.65921875 14.42578125 13.8359375 C14 17 14 17 12.60546875 19.4140625 C10 21 10 21 0 21 C0 14.07 0 7.14 0 0 Z " fill="#F4F6F9" transform="translate(502,366)"/>
<path d="M0 0 C12.03647687 -0.43505338 12.03647687 -0.43505338 16 3 C17.58939347 6.17878694 17.41576711 8.4956772 17 12 C14.79709525 14.66382021 12.09091704 16.45454148 9 18 C6.03 18 3.06 18 0 18 C0 12.06 0 6.12 0 0 Z " fill="#F8FAFB" transform="translate(990,541)"/>
<path d="M0 0 C10.01535761 -0.48266784 10.01535761 -0.48266784 14.1875 1.5625 C16.65485184 4.88066282 16.51451424 6.95738812 16 11 C13.95466571 14.06800143 13.31366611 14.76618815 10 16 C7.421875 16.1953125 7.421875 16.1953125 4.75 16.125 C3.1825 16.08375 1.615 16.0425 0 16 C0 10.72 0 5.44 0 0 Z " fill="#EFF3F7" transform="translate(584,540)"/>
<path d="M0 0 C4.62 0 9.24 0 14 0 C14 20.79 14 41.58 14 63 C9.38 63 4.76 63 0 63 C0 54.42 0 45.84 0 37 C0.33 37 0.66 37 1 37 C1.33 44.59 1.66 52.18 2 60 C5.3 60.33 8.6 60.66 12 61 C12 41.2 12 21.4 12 1 C8.37 1 4.74 1 1 1 C1 8.59 1 16.18 1 24 C0.67 24 0.34 24 0 24 C0 16.08 0 8.16 0 0 Z " fill="#106CB5" transform="translate(781,531)"/>
<path d="M0 0 C4.62 0 9.24 0 14 0 C14 20.79 14 41.58 14 63 C9.38 63 4.76 63 0 63 C0 54.42 0 45.84 0 37 C0.33 37 0.66 37 1 37 C1 44.92 1 52.84 1 61 C4.63 61 8.26 61 12 61 C12 41.2 12 21.4 12 1 C8.37 1 4.74 1 1 1 C1 8.59 1 16.18 1 24 C0.67 24 0.34 24 0 24 C0 16.08 0 8.16 0 0 Z " fill="#156BB4" transform="translate(194,531)"/>
<path d="M0 0 C4.29 0 8.58 0 13 0 C13 20.79 13 41.58 13 63 C8.05 63 3.1 63 -2 63 C-4 60 -4 60 -4 57 C-3.34 57.33 -2.68 57.66 -2 58 C-2 58.99 -2 59.98 -2 61 C2.29 61 6.58 61 11 61 C11 41.2 11 21.4 11 1 C7.37 1 3.74 1 0 1 C0 0.67 0 0.34 0 0 Z " fill="#156CB4" transform="translate(717,531)"/>
<path d="M0 0 C5.61 0 11.22 0 17 0 C17.66 1.65 18.32 3.3 19 5 C18.34 4.67 17.68 4.34 17 4 C17 3.34 17 2.68 17 2 C12.05 2 7.1 2 2 2 C2 22.46 2 42.92 2 64 C1.34 64 0.68 64 0 64 C0 42.88 0 21.76 0 0 Z " fill="#3882C2" transform="translate(677,530)"/>
<path d="M0 0 C0.66 0 1.32 0 2 0 C2.33 19.8 2.66 39.6 3 60 C10.26 60.33 17.52 60.66 25 61 C25 61.33 25 61.66 25 62 C16.75 62 8.5 62 0 62 C0 41.54 0 21.08 0 0 Z " fill="#0E6DB7" transform="translate(570,532)"/>
<path d="M0 0 C1.875 1.125 1.875 1.125 3 3 C3.54624158 6.66762206 3.47898298 8.3258758 1.3125 11.375 C-1 13 -1 13 -3.5 13.5625 C-6 13 -6 13 -8.375 10.8125 C-10 8 -10 8 -9.9375 5.375 C-7.88828636 0.18365877 -5.54148729 -0.69268591 0 0 Z " fill="#2175BA" transform="translate(545,514)"/>
<path d="M0 0 C1.875 1.0625 1.875 1.0625 3 3 C3.36841966 6.43858351 3.58367385 8.90131981 1.9375 12 C-1.22796524 13.63378851 -3.65020286 12.85267564 -7 12 C-9.31282587 8.53076119 -9.42478586 7.07794425 -9 3 C-6.79086995 -0.68188342 -4.01844539 -0.50230567 0 0 Z " fill="#1D74B9" transform="translate(525,514)"/>
<path d="M0 0 C7.59 0 15.18 0 23 0 C23 3.63 23 7.26 23 11 C15.08 11 7.16 11 -1 11 C-1 15.95 -1 20.9 -1 26 C-1.33 26 -1.66 26 -2 26 C-2 21.05 -2 16.1 -2 11 C-2.66 11 -3.32 11 -4 11 C-3.67 9.68 -3.34 8.36 -3 7 C-2.34 7.33 -1.68 7.66 -1 8 C-1 8.33 -1 8.66 -1 9 C6.26 9 13.52 9 21 9 C21 6.36 21 3.72 21 1 C14.07 1 7.14 1 0 1 C0 0.67 0 0.34 0 0 Z " fill="#0B69B4" transform="translate(1146,556)"/>
<path d="M0 0 C7.59 0 15.18 0 23 0 C23 3.63 23 7.26 23 11 C15.41 11 7.82 11 0 11 C0 10.34 0 9.68 0 9 C6.93 9 13.86 9 21 9 C21 6.36 21 3.72 21 1 C14.07 1 7.14 1 0 1 C0 0.67 0 0.34 0 0 Z " fill="#0E6AB5" transform="translate(940,556)"/>
<path d="M0 0 C7.26 0 14.52 0 22 0 C22 3.63 22 7.26 22 11 C14.74 11 7.48 11 0 11 C0 10.67 0 10.34 0 10 C6.93 10 13.86 10 21 10 C21 7.36 21 4.72 21 2 C20.43490723 2.03552979 19.86981445 2.07105957 19.28759766 2.10766602 C16.73371428 2.26501802 14.1794046 2.41386008 11.625 2.5625 C10.29082031 2.64661133 10.29082031 2.64661133 8.9296875 2.73242188 C7.65351562 2.80493164 7.65351562 2.80493164 6.3515625 2.87890625 C5.56604004 2.9260376 4.78051758 2.97316895 3.97119141 3.02172852 C2 3 2 3 0 2 C0 1.34 0 0.68 0 0 Z " fill="#0B67B2" transform="translate(890,557)"/>
<path d="M0 0 C0.66 2.64 1.32 5.28 2 8 C-1.63 8.33 -5.26 8.66 -9 9 C-8.75 5.625 -8.75 5.625 -8 2 C-5.17700309 -0.23892859 -3.7208921 0 0 0 Z " fill="#F6F9FA" transform="translate(951,208)"/>
<path d="M0 0 C0.66 0 1.32 0 2 0 C2.81498562 1.6029053 3.62689927 3.20737278 4.4375 4.8125 C4.88996094 5.70582031 5.34242188 6.59914063 5.80859375 7.51953125 C7.96767428 12.01466612 8.12183133 15.79951139 8.0625 20.6875 C8.05798828 21.38939453 8.05347656 22.09128906 8.04882812 22.81445312 C8.03706927 24.54300538 8.01913454 26.27151365 8 28 C7.67 28 7.34 28 7 28 C6.92652344 27.04287109 6.92652344 27.04287109 6.8515625 26.06640625 C6.77679687 25.24011719 6.70203125 24.41382813 6.625 23.5625 C6.52058594 22.32693359 6.52058594 22.32693359 6.4140625 21.06640625 C6.27742187 20.38449219 6.14078125 19.70257812 6 19 C5.34 18.67 4.68 18.34 4 18 C3.69140625 15.671875 3.69140625 15.671875 3.5625 12.75 C3.25454358 8.35306664 2.67847971 5.61012483 0 2 C0 1.34 0 0.68 0 0 Z " fill="#3B7FB9" transform="translate(858,540)"/>
<path d="M0 0 C7.59 0 15.18 0 23 0 C23 0.33 23 0.66 23 1 C16.07 1 9.14 1 2 1 C2 3.64 2 6.28 2 9 C4.64 9 7.28 9 10 9 C10 9.33 10 9.66 10 10 C6.7 10.33 3.4 10.66 0 11 C0 7.37 0 3.74 0 0 Z " fill="#0F6AB4" transform="translate(1211,558)"/>
<path d="M0 0 C0.66 0 1.32 0 2 0 C4.5896538 7.88379762 5.3943928 14.91709293 5.1875 23.1875 C5.17396484 24.23486328 5.16042969 25.28222656 5.14648438 26.36132812 C5.1115968 28.90812124 5.0625887 31.45376325 5 34 C4.67 34 4.34 34 4 34 C3.67 27.4 3.34 20.8 3 14 C2.67 14 2.34 14 2 14 C1.66179834 12.4176994 1.32964061 10.83410625 1 9.25 C0.814375 8.36828125 0.62875 7.4865625 0.4375 6.578125 C0 4 0 4 0 0 Z " fill="#4A89BD" transform="translate(569,417)"/>
<path d="M0 0 C0 0.33 0 0.66 0 1 C-5.94 1.495 -5.94 1.495 -12 2 C-12 2.33 -12 2.66 -12 3 C-19.92 2.67 -27.84 2.34 -36 2 C-36 1.67 -36 1.34 -36 1 C-23.9895138 0.3475014 -12.03000164 -0.16631339 0 0 Z " fill="#8FB9DD" transform="translate(826,286)"/>
<path d="M0 0 C-0.86625 0.3403125 -0.86625 0.3403125 -1.75 0.6875 C-4.55338976 2.32281069 -6.00442154 4.47226728 -8 7 C-8.66 7 -9.32 7 -10 7 C-9.67 9.64 -9.34 12.28 -9 15 C-11.39286884 12.60713116 -11.32050616 11.90552906 -11.375 8.625 C-11.28829512 5.4577218 -11.12197007 4.20003091 -9.4375 1.4375 C-6.17847619 -0.4844884 -3.71510114 -0.28577701 0 0 Z " fill="#146EB6" transform="translate(632,310)"/>
<path d="M0 0 C3.17111827 3.74768523 5.11214485 7.36459607 4.8984375 12.38671875 C4.65477936 14.60400779 4.36191539 16.79916316 4 19 C3.67 19 3.34 19 3 19 C3 16.03 3 13.06 3 10 C2.01 9.67 1.02 9.34 0 9 C0.33 7.68 0.66 6.36 1 5 C0.34 5 -0.32 5 -1 5 C-0.67 3.35 -0.34 1.7 0 0 Z " fill="#2A79B9" transform="translate(775,243)"/>
<path d="M0 0 C4.95 0 9.9 0 15 0 C14.67 0.99 14.34 1.98 14 3 C9.71 2.67 5.42 2.34 1 2 C0.67 2.99 0.34 3.98 0 5 C0 3.35 0 1.7 0 0 Z " fill="#397FBD" transform="translate(1109,530)"/>
<path d="M0 0 C7.42857143 -0.28571429 7.42857143 -0.28571429 11 2 C9 3 9 3 6.5 3.4375 C3.84208667 3.80148552 3.84208667 3.80148552 2 6 C1.34 5.34 0.68 4.68 0 4 C0 2.68 0 1.36 0 0 Z " fill="#4E92CC" transform="translate(929,193)"/>
<path d="M0 0 C0.33 0 0.66 0 1 0 C1.05416188 1.60379341 1.09286638 3.20811406 1.125 4.8125 C1.14820313 5.70582031 1.17140625 6.59914063 1.1953125 7.51953125 C1 10 1 10 -1 13 C-1.66 13 -2.32 13 -3 13 C-3.33 11.68 -3.66 10.36 -4 9 C-3.01 8.67 -2.02 8.34 -1 8 C-0.67 5.36 -0.34 2.72 0 0 Z " fill="#347DBA" transform="translate(443,570)"/>
<path d="M0 0 C0.66 0 1.32 0 2 0 C1.34 5.94 0.68 11.88 0 18 C-0.33 18 -0.66 18 -1 18 C-1.22119939 15.37549914 -1.42746669 12.75129514 -1.625 10.125 C-1.68945312 9.37863281 -1.75390625 8.63226562 -1.8203125 7.86328125 C-1.96087365 5.9129953 -1.98759849 3.95530533 -2 2 C-1.34 1.34 -0.68 0.68 0 0 Z " fill="#0D6AB4" transform="translate(111,550)"/>
<path d="M0 0 C0.66 0.33 1.32 0.66 2 1 C-3.95395754 4.78003299 -8.10907206 5.46751243 -15 4 C-15 3.34 -15 2.68 -15 2 C-14.25234375 2.02320313 -13.5046875 2.04640625 -12.734375 2.0703125 C-11.74953125 2.08835937 -10.7646875 2.10640625 -9.75 2.125 C-8.77546875 2.14820313 -7.8009375 2.17140625 -6.796875 2.1953125 C-3.95347223 1.99675085 -2.47426708 1.30282205 0 0 Z " fill="#156FB7" transform="translate(851,589)"/>
<path d="M0 0 C0.66 0.66 1.32 1.32 2 2 C0.68 3.65 -0.64 5.3 -2 7 C-2.66 6.67 -3.32 6.34 -4 6 C-4.99 6.33 -5.98 6.66 -7 7 C-5.54744301 3.17053157 -3.57104439 1.87949705 0 0 Z " fill="#1470B8" transform="translate(716,225)"/>
<path d="M0 0 C2.36120297 0.25392418 4.7150539 0.57798123 7.0625 0.9375 C8.35285156 1.13214844 9.64320313 1.32679688 10.97265625 1.52734375 C11.97167969 1.68332031 12.97070312 1.83929687 14 2 C14 2.33 14 2.66 14 3 C12.06494977 3.24900646 10.12674066 3.47356242 8.1875 3.6875 C7.10855469 3.81511719 6.02960937 3.94273437 4.91796875 4.07421875 C2 4 2 4 0.11328125 2.51953125 C-0.25410156 2.01808594 -0.62148438 1.51664063 -1 1 C-0.67 0.67 -0.34 0.34 0 0 Z " fill="#136DB6" transform="translate(825,582)"/>
<path d="M0 0 C0.33 0.66 0.66 1.32 1 2 C1.66 2 2.32 2 3 2 C2.55090939 3.48199902 2.09043436 4.96055236 1.625 6.4375 C1.24214844 7.67306641 1.24214844 7.67306641 0.8515625 8.93359375 C0 11 0 11 -2 12 C-1.835 10.906875 -1.67 9.81375 -1.5 8.6875 C-0.93281816 5.12474127 -0.93281816 5.12474127 -1 2 C-0.67 1.34 -0.34 0.68 0 0 Z " fill="#176FB3" transform="translate(569,455)"/>
<path d="M0 0 C2.31 0.66 4.62 1.32 7 2 C6.01 2.66 5.02 3.32 4 4 C2.32576317 5.32381517 0.65788785 6.65576661 -1 8 C-0.67 5.36 -0.34 2.72 0 0 Z " fill="#3580BD" transform="translate(48,579)"/>
<path d="M0 0 C0.99 0 1.98 0 3 0 C2.67 2.97 2.34 5.94 2 9 C0.68 8.34 -0.64 7.68 -2 7 C-1.34 4.69 -0.68 2.38 0 0 Z " fill="#438AC3" transform="translate(1065,572)"/>
<path d="M0 0 C2.64 0 5.28 0 8 0 C8 0.66 8 1.32 8 2 C6.02 2.33 4.04 2.66 2 3 C2 3.99 2 4.98 2 6 C1.01 5.01 0.02 4.02 -1 3 C-0.67 2.01 -0.34 1.02 0 0 Z " fill="#8FC6E8" transform="translate(1077,161)"/>
<path d="M0 0 C-0.99 1.485 -0.99 1.485 -2 3 C-4.64 2.67 -7.28 2.34 -10 2 C-5.86678317 -0.75547789 -4.77928863 -1.13193678 0 0 Z " fill="#2D7CBD" transform="translate(1206,532)"/>
<path d="M0 0 C0.33 0 0.66 0 1 0 C1.31563182 5.26053037 0.66590937 8.44573816 -2 13 C-2.33 11.68 -2.66 10.36 -3 9 C-2.34 9 -1.68 9 -1 9 C-1 8.34 -1 7.68 -1 7 C-1.66 6.67 -2.32 6.34 -3 6 C-2.01 5.67 -1.02 5.34 0 5 C0 3.35 0 1.7 0 0 Z " fill="#166DB3" transform="translate(778,270)"/>
<path d="M0 0 C7.57142857 4 7.57142857 4 10 8 C9.236875 7.690625 8.47375 7.38125 7.6875 7.0625 C5.81210323 6.32106407 3.91315348 5.63771783 2 5 C2 4.01 2 3.02 2 2 C1.34 2 0.68 2 0 2 C0 1.34 0 0.68 0 0 Z " fill="#226FB3" transform="translate(849,532)"/>
<path d="M0 0 C2.31 0 4.62 0 7 0 C7.33 1.32 7.66 2.64 8 4 C7.34 4 6.68 4 6 4 C5.01 5.485 5.01 5.485 4 7 C3.896875 6.21625 3.79375 5.4325 3.6875 4.625 C3.22404978 1.66954819 3.22404978 1.66954819 0 0 Z " fill="#186DB5" transform="translate(138,531)"/>
<path d="M0 0 C0.66 0 1.32 0 2 0 C2.33 2.31 2.66 4.62 3 7 C2.01 7.33 1.02 7.66 0 8 C-0.98120464 4.94736336 -0.98120464 3.05263664 0 0 Z " fill="#2979B9" transform="translate(785,370)"/>
<path d="M0 0 C0 0.66 0 1.32 0 2 C-1.32 2.33 -2.64 2.66 -4 3 C-4 2.34 -4 1.68 -4 1 C-7.3 1 -10.6 1 -14 1 C-14 0.67 -14 0.34 -14 0 C-12.41773035 -0.19627391 -10.83410729 -0.38165538 -9.25 -0.5625 C-8.36828125 -0.66691406 -7.4865625 -0.77132813 -6.578125 -0.87890625 C-4.11567549 -0.99456676 -2.33461936 -0.73638695 0 0 Z " fill="#086BB5" transform="translate(516,387)"/>
<path d="M0 0 C1.76462683 3.08809695 2 4.23312136 2 8 C0.02 8 -1.96 8 -4 8 C-3.67 7.34 -3.34 6.68 -3 6 C-2.01 6 -1.02 6 0 6 C0 4.02 0 2.04 0 0 Z " fill="#2F79B8" transform="translate(1021,586)"/>
<path d="M0 0 C3 3 6 6 9 9 C6.75 8.875 6.75 8.875 4 8 C0 2.91891892 0 2.91891892 0 0 Z " fill="#2974B4" transform="translate(821,574)"/>
<path d="M0 0 C0.99 0 1.98 0 3 0 C3 3.3 3 6.6 3 10 C-0.00617269 6.99382731 0.40414684 4.17618402 0 0 Z " fill="#116FB6" transform="translate(743,423)"/>
<path d="M0 0 C0.66 0.99 1.32 1.98 2 3 C1.34 4.32 0.68 5.64 0 7 C0.66 7 1.32 7 2 7 C2 7.66 2 8.32 2 9 C1.01 8.67 0.02 8.34 -1 8 C-1.33 6.02 -1.66 4.04 -2 2 C-1.34 2 -0.68 2 0 2 C0 1.34 0 0.68 0 0 Z " fill="#2E79B9" transform="translate(1194,568)"/>
<path d="M0 0 C4 4.75 4 4.75 4 7 C3.34 7 2.68 7 2 7 C1.67 6.34 1.34 5.68 1 5 C0.34 5.66 -0.32 6.32 -1 7 C-1.04254356 5.00045254 -1.04080783 2.99958364 -1 1 C-0.67 0.67 -0.34 0.34 0 0 Z " fill="#0E6DB7" transform="translate(652,448)"/>
<path d="M0 0 C0.66 1.32 1.32 2.64 2 4 C1.01 4.99 0.02 5.98 -1 7 C-1.625 4.625 -1.625 4.625 -2 2 C-1.34 1.34 -0.68 0.68 0 0 Z " fill="#1371B8" transform="translate(772,283)"/>
<path d="M0 0 C0.66 0 1.32 0 2 0 C2.75 1.75 2.75 1.75 3 4 C1.0625 6.25 1.0625 6.25 -1 8 C-0.67 5.36 -0.34 2.72 0 0 Z " fill="#64A0D4" transform="translate(801,391)"/>
<path d="M0 0 C0.99 0 1.98 0 3 0 C2.67 1.65 2.34 3.3 2 5 C1.01 4.67 0.02 4.34 -1 4 C-1.33 4.66 -1.66 5.32 -2 6 C-1.125 1.125 -1.125 1.125 0 0 Z " fill="#126FB7" transform="translate(699,242)"/>
</svg>
